advent_pro_thn_it.ufo
<glyph name="exclam" format="1">
  <advance width="117"/>
  <unicode hex="0021"/>
  <outline>
    <contour>
      <point x="188.664" y="690" type="line" smooth="yes"/>
      <point x="191.215" y="702"/>
      <point x="201.157" y="708"/>
      <point x="210.49" y="708" type="curve" smooth="yes"/>
      <point x="219.823" y="708"/>
      <point x="223.215" y="702"/>
      <point x="220.664" y="690" type="curve" smooth="yes"/>
      <point x="91.5068" y="120" type="line"/>
      <point x="76.5068" y="120" type="line"/>
    </contour>
    <contour>
      <point x="78.826" y="18" type="curve" smooth="yes"/>
      <point x="76.8421" y="8.66667"/>
      <point x="68.3333" y="0"/>
      <point x="59" y="0" type="curve" smooth="yes"/>
      <point x="49.6667" y="0"/>
      <point x="42.8422" y="8.66667"/>
      <point x="44.8261" y="18" type="curve" smooth="yes"/>
      <point x="46.5265" y="26"/>
      <point x="56.8936" y="34"/>
      <point x="66.2269" y="34" type="curve" smooth="yes"/>
      <point x="75.5603" y="34"/>
      <point x="80.5265" y="26"/>
    </contour>
  </outline>
</glyph>
<glyph name="quotedbl" format="1">
  <advance width="222"/>
  <unicode hex="0022"/>
  <outline>
    <contour>
      <point x="316.253" y="721" type="line"/>
      <point x="320.55" y="741.213"/>
      <point x="349.559" y="741.258"/>
      <point x="345.253" y="721" type="curve"/>
      <point x="309.771" y="587" type="line"/>
      <point x="292.771" y="587" type="line"/>
    </contour>
    <contour>
      <point x="181.253" y="721" type="line"/>
      <point x="185.497" y="740.964"/>
      <point x="213.612" y="741.506"/>
      <point x="209.253" y="721" type="curve"/>
      <point x="174.771" y="587" type="line"/>
      <point x="157.771" y="587" type="line"/>
    </contour>
  </outline>
</glyph>
<glyph name="dollar" format="1">
  <advance width="523"/>
  <unicode hex="0024"/>
  <outline>
    <component base="S"/>
    <contour>
      <point x="240.981" y="-113" type="line"/>
      <point x="438.234" y="815" type="line"/>
      <point x="457.234" y="815" type="line"/>
      <point x="259.981" y="-113" type="line"/>
    </contour>
  </outline>
</glyph>
<glyph name="period" format="1">
  <advance width="102"/>
  <unicode hex="002E"/>
  <outline>
    <contour>
      <point x="59.9126" y="30" type="curve" smooth="yes"/>
      <point x="71" y="30"/>
      <point x="73.7593" y="21.3716"/>
      <point x="71.5776" y="13.8525" type="curve" smooth="yes"/>
      <point x="69.1318" y="3.9614"/>
      <point x="62.1858" y="-4"/>
      <point x="50.1497" y="-4" type="curve" smooth="yes"/>
      <point x="38.8681" y="-4"/>
      <point x="36.0592" y="6.16917"/>
      <point x="39.1268" y="15.3846" type="curve" smooth="yes"/>
      <point x="41.6684" y="23.0196"/>
      <point x="48.9165" y="30"/>
    </contour>
  </outline>
</glyph>
<glyph name="seven" format="1">
  <advance width="428"/>
  <unicode hex="0037"/>
  <outline>
    <contour>
      <point x="58" y="0" type="line"/>
      <point x="36" y="0" type="line"/>
      <point x="537.113" y="678" type="line"/>
      <point x="169.113" y="678" type="line"/>
      <point x="173.364" y="698" type="line"/>
      <point x="566.364" y="698" type="line"/>
      <point x="562.113" y="678" type="line"/>
    </contour>
  </outline>
</glyph>
<glyph name="eight" format="1">
  <advance width="468"/>
  <unicode hex="0038"/>
  <outline>
    <contour>
      <point x="384.277" y="707" type="curve" smooth="yes"/>
      <point x="433.611" y="707"/>
      <point x="470.139" y="690.667"/>
      <point x="493.862" y="658" type="curve" smooth="yes"/>
      <point x="518.777" y="624.667"/>
      <point x="527.203" y="584"/>
      <point x="517" y="536" type="curve" smooth="yes"/>
      <point x="509.631" y="501.333"/>
      <point x="489.76" y="469.333"/>
      <point x="461.525" y="440" type="curve" smooth="yes"/>
      <point x="437.757" y="416"/>
      <point x="406.601" y="394.667"/>
      <point x="371" y="384" type="curve"/>
      <point x="413.783" y="372"/>
      <point x="444.111" y="348.667"/>
      <point x="463.893" y="310" type="curve" smooth="yes"/>
      <point x="482.624" y="272.667"/>
      <point x="488.384" y="232.333"/>
      <point x="479.598" y="191" type="curve" smooth="yes"/>
      <point x="467.412" y="133.667"/>
      <point x="436.663" y="84.6667"/>
      <point x="389.778" y="46" type="curve" smooth="yes"/>
      <point x="342.892" y="7.33333"/>
      <point x="290.116" y="-12"/>
      <point x="231.449" y="-12" type="curve" smooth="yes"/>
      <point x="171.449" y="-12"/>
      <point x="125.892" y="7.33333"/>
      <point x="94.7776" y="46" type="curve" smooth="yes"/>
      <point x="64.3298" y="84.6667"/>
      <point x="54.4117" y="133.667"/>
      <point x="66.5983" y="191" type="curve" smooth="yes"/>
      <point x="75.6674" y="233.667"/>
      <point x="98.4531" y="275"/>
      <point x="134.105" y="311" type="curve"/>
      <point x="168.707" y="348.333"/>
      <point x="216.995" y="374"/>
      <point x="258.213" y="386" type="curve"/>
      <point x="229.813" y="396.667"/>
      <point x="205.24" y="417.333"/>
      <point x="190" y="446" type="curve"/>
      <point x="176.858" y="476"/>
      <point x="174" y="507.333"/>
      <point x="179.787" y="538" type="curve" smooth="yes"/>
      <point x="189.317" y="586.137"/>
      <point x="214.955" y="623.988"/>
      <point x="253.65" y="657" type="curve" smooth="yes"/>
      <point x="292.319" y="689.99"/>
      <point x="336.278" y="707"/>
    </contour>
    <contour>
      <point x="317" y="394" type="curve" smooth="yes"/>
      <point x="366.333" y="394"/>
      <point x="416" y="416.971"/>
      <point x="450.288" y="453" type="curve" smooth="yes"/>
      <point x="474.37" y="478.304"/>
      <point x="489.483" y="505.667"/>
      <point x="496.568" y="539" type="curve" smooth="yes"/>
      <point x="513.918" y="620.624"/>
      <point x="469" y="687"/>
      <point x="380.026" y="687" type="curve" smooth="yes"/>
      <point x="298" y="687"/>
      <point x="216.882" y="620.455"/>
      <point x="199.568" y="539" type="curve" smooth="yes"/>
      <point x="192.341" y="505"/>
      <point x="196.177" y="473.108"/>
      <point x="211.787" y="447" type="curve" smooth="yes"/>
      <point x="232.399" y="414"/>
      <point x="269" y="394"/>
    </contour>
    <contour>
      <point x="234" y="6" type="curve" smooth="yes"/>
      <point x="338" y="6"/>
      <point x="438.897" y="88.9049"/>
      <point x="460.173" y="189" type="curve" smooth="yes"/>
      <point x="469.242" y="231.667"/>
      <point x="464.482" y="269.333"/>
      <point x="447" y="300" type="curve"/>
      <point x="423.303" y="345.333"/>
      <point x="384.277" y="373"/>
      <point x="312.284" y="373" type="curve" smooth="yes"/>
      <point x="254" y="373"/>
      <point x="195.282" y="346.333"/>
      <point x="151.83" y="305" type="curve" smooth="yes"/>
      <point x="119.978" y="274.333"/>
      <point x="95.7126" y="233.065"/>
      <point x="86.1732" y="189" type="curve" smooth="yes"/>
      <point x="63.862" y="85.9374"/>
      <point x="124" y="6"/>
    </contour>
  </outline>
</glyph>
<glyph name="colon" format="1">
  <advance width="110"/>
  <unicode hex="003A"/>
  <outline>
    <contour>
      <point x="100.396" y="143" type="curve" smooth="yes"/>
      <point x="98.4117" y="133.667"/>
      <point x="89.328" y="127"/>
      <point x="79.9947" y="127" type="curve" smooth="yes"/>
      <point x="70.6613" y="127"/>
      <point x="64.4117" y="133.667"/>
      <point x="66.3956" y="143" type="curve" smooth="yes"/>
      <point x="68.6629" y="153.667"/>
      <point x="77.4632" y="159"/>
      <point x="86.7965" y="159" type="curve" smooth="yes"/>
      <point x="96.1298" y="159"/>
      <point x="102.663" y="153.667"/>
    </contour>
    <contour>
      <point x="151.622" y="384" type="curve" smooth="yes"/>
      <point x="149.638" y="374.667"/>
      <point x="140.342" y="367"/>
      <point x="131.008" y="367" type="curve" smooth="yes"/>
      <point x="118.623" y="367"/>
      <point x="115.547" y="377.317"/>
      <point x="119.008" y="386.414" type="curve" smooth="yes"/>
      <point x="121.736" y="393.586"/>
      <point x="128.528" y="400"/>
      <point x="138.023" y="400" type="curve" smooth="yes"/>
      <point x="147.356" y="400"/>
      <point x="153.606" y="393.333"/>
    </contour>
  </outline>
</glyph>
<glyph name="less" format="1">
  <advance width="349"/>
  <unicode hex="003C"/>
  <outline>
    <contour>
      <point x="101.095" y="358" type="line"/>
      <point x="436.973" y="635" type="line"/>
      <point x="449.21" y="622" type="line"/>
      <point x="126" y="356" type="line"/>
      <point x="335.213" y="93" type="line"/>
      <point x="318.792" y="79" type="line"/>
    </contour>
  </outline>
</glyph>
<glyph name="equal" format="1">
  <advance width="386"/>
  <unicode hex="003D"/>
  <outline>
    <contour>
      <point x="117.535" y="393" type="line"/>
      <point x="121.361" y="411" type="line"/>
      <point x="440.361" y="411" type="line"/>
      <point x="437" y="393" type="line"/>
    </contour>
    <contour>
      <point x="95.2163" y="288" type="line"/>
      <point x="99.2549" y="307" type="line"/>
      <point x="418.255" y="307" type="line"/>
      <point x="414.216" y="288" type="line"/>
    </contour>
  </outline>
</glyph>
<glyph name="A" format="1">
  <advance width="542"/>
  <unicode hex="0041"/>
  <outline>
    <contour>
      <point x="524" y="0" type="line"/>
      <point x="503" y="0" type="line"/>
      <point x="464.516" y="280" type="line"/>
      <point x="199.516" y="280" type="line"/>
      <point x="42" y="0" type="line"/>
      <point x="20" y="0" type="line"/>
      <point x="413.364" y="698" type="line"/>
      <point x="427.364" y="698" type="line"/>
    </contour>
    <contour>
      <point x="211.554" y="299" type="line"/>
      <point x="462" y="299" type="line"/>
      <point x="413" y="656" type="line"/>
    </contour>
  </outline>
</glyph>
<glyph name="D" format="1">
  <advance width="494"/>
  <unicode hex="0044"/>
  <outline>
    <contour>
      <point x="377.364" y="698" type="line" smooth="yes"/>
      <point x="528.031" y="698"/>
      <point x="589.447" y="609"/>
      <point x="560.539" y="473" type="curve" smooth="yes"/>
      <point x="502.299" y="199" type="line" smooth="yes"/>
      <point x="474.241" y="67"/>
      <point x="390.333" y="0"/>
      <point x="249" y="0" type="curve" smooth="yes"/>
      <point x="39" y="0" type="line"/>
      <point x="187.364" y="698" type="line"/>
    </contour>
    <contour>
      <point x="243.251" y="20" type="line" smooth="yes"/>
      <point x="370.821" y="20"/>
      <point x="454.333" y="62.7288"/>
      <point x="486.275" y="213" type="curve" smooth="yes"/>
      <point x="540.051" y="466" type="line" smooth="yes"/>
      <point x="566.923" y="592.422"/>
      <point x="518.342" y="678"/>
      <point x="383.113" y="678" type="curve" smooth="yes"/>
      <point x="204.113" y="678" type="line"/>
      <point x="64.2511" y="20" type="line"/>
    </contour>
  </outline>
</glyph>
<glyph name="F" format="1">
  <advance width="387"/>
  <unicode hex="0046"/>
  <outline>
    <contour>
      <point x="522.365" y="698" type="line"/>
      <point x="518.113" y="678" type="line"/>
      <point x="205.113" y="678" type="line"/>
      <point x="148.361" y="411" type="line"/>
      <point x="375.361" y="411" type="line"/>
      <point x="368" y="393" type="line"/>
      <point x="144.535" y="393" type="line"/>
      <point x="61" y="0" type="line"/>
      <point x="41" y="0" type="line"/>
      <point x="189.364" y="698" type="line"/>
    </contour>
  </outline>
</glyph>
<glyph name="G" format="1">
  <advance width="475"/>
  <unicode hex="0047"/>
  <outline>
    <contour>
      <point x="501.678" y="657" type="line"/>
      <point x="464" y="679"/>
      <point x="415.148" y="689"/>
      <point x="376.481" y="689" type="curve" smooth="yes"/>
      <point x="251.481" y="689"/>
      <point x="183.749" y="615"/>
      <point x="158.237" y="495" type="curve" smooth="yes"/>
      <point x="92.5436" y="186" type="line" smooth="yes"/>
      <point x="68.0169" y="70.6344"/>
      <point x="130.845" y="9"/>
      <point x="249.913" y="9" type="curve" smooth="yes"/>
      <point x="360.913" y="9"/>
      <point x="439.8" y="69.6158"/>
      <point x="463.693" y="182" type="curve" smooth="yes"/>
      <point x="484.528" y="280" type="line"/>
      <point x="309.528" y="280" type="line"/>
      <point x="305.567" y="299" type="line"/>
      <point x="507.567" y="299" type="line"/>
      <point x="444" y="0" type="line"/>
      <point x="425" y="0" type="line"/>
      <point x="443.709" y="88" type="line"/>
      <point x="400.015" y="22.5063"/>
      <point x="330.874" y="-10"/>
      <point x="242.874" y="-10" type="curve" smooth="yes"/>
      <point x="128.874" y="-10"/>
      <point x="45.3308" y="58"/>
      <point x="72.9688" y="188" type="curve" smooth="yes"/>
      <point x="139.725" y="502" type="line" smooth="yes"/>
      <point x="166.938" y="630"/>
      <point x="251.308" y="707"/>
      <point x="377.308" y="707" type="curve" smooth="yes"/>
      <point x="429.308" y="707"/>
      <point x="474.303" y="696"/>
      <point x="512.292" y="674" type="curve"/>
    </contour>
  </outline>
</glyph>
<glyph name="J" format="1">
  <advance width="177"/>
  <unicode hex="004A"/>
  <outline>
    <contour>
      <point x="161.932" y="122" type="line" smooth="yes"/>
      <point x="145" y="40"/>
      <point x="113" y="-22"/>
      <point x="24.1354" y="-37" type="curve"/>
      <point x="21.9614" y="-19" type="line"/>
      <point x="83.9453" y="-9.66667"/>
      <point x="125.51" y="35.3333"/>
      <point x="143.082" y="118" type="curve" smooth="yes"/>
      <point x="261.688" y="676" type="line"/>
      <point x="177.326" y="679" type="line"/>
      <point x="181.364" y="698" type="line"/>
      <point x="284.364" y="698" type="line"/>
    </contour>
  </outline>
</glyph>
<glyph name="K" format="1">
  <advance width="457"/>
  <unicode hex="004B"/>
  <outline>
    <contour>
      <point x="127" y="312" type="line"/>
      <point x="507" y="698" type="line"/>
      <point x="533.395" y="698" type="line"/>
      <point x="257.654" y="417" type="line"/>
      <point x="437" y="0" type="line"/>
      <point x="416" y="0" type="line"/>
      <point x="241.465" y="402" type="line"/>
      <point x="119.315" y="279" type="line"/>
      <point x="60" y="0" type="line"/>
      <point x="41" y="0" type="line"/>
      <point x="189.395" y="698" type="line"/>
      <point x="208.395" y="698" type="line"/>
    </contour>
  </outline>
</glyph>
<glyph name="L" format="1">
  <advance width="419"/>
  <unicode hex="004C"/>
  <outline>
    <contour>
      <point x="41" y="0" type="line"/>
      <point x="189.395" y="698" type="line"/>
      <point x="208.395" y="698" type="line"/>
      <point x="64.252" y="20" type="line"/>
      <point x="405.252" y="20" type="line"/>
      <point x="401" y="0" type="line"/>
    </contour>
  </outline>
</glyph>
<glyph name="O" format="1">
  <advance width="486"/>
  <unicode hex="004F"/>
  <outline>
    <contour>
      <point x="140.554" y="506" type="line" smooth="yes"/>
      <point x="169.461" y="642"/>
      <point x="263.235" y="714"/>
      <point x="395" y="714" type="curve" smooth="yes"/>
      <point x="524.235" y="714"/>
      <point x="586.865" y="637.647"/>
      <point x="559" y="507" type="curve" smooth="yes"/>
      <point x="490.323" y="185" type="line" smooth="yes"/>
      <point x="463.863" y="63.0292"/>
      <point x="365.771" y="-11"/>
      <point x="240.662" y="-11" type="curve" smooth="yes"/>
      <point x="124.035" y="-11"/>
      <point x="44.9013" y="55.9913"/>
      <point x="72.323" y="185" type="curve" smooth="yes"/>
    </contour>
    <contour>
      <point x="92" y="185" type="line" smooth="yes"/>
      <point x="69.1352" y="77.9365"/>
      <point x="126" y="8"/>
      <point x="244.7" y="8" type="curve" smooth="yes"/>
      <point x="344" y="8"/>
      <point x="444.72" y="69.3584"/>
      <point x="470" y="187" type="curve" smooth="yes"/>
      <point x="538.979" y="508" type="line" smooth="yes"/>
      <point x="563.91" y="624.019"/>
      <point x="516.667" y="694"/>
      <point x="390" y="694" type="curve" smooth="yes"/>
      <point x="264.667" y="694"/>
      <point x="185.688" y="620.854"/>
      <point x="160.554" y="506" type="curve" smooth="yes"/>
    </contour>
  </outline>
</glyph>
<glyph name="Q" format="1">
  <advance width="486"/>
  <unicode hex="0051"/>
  <outline>
    <component base="O"/>
    <contour>
      <point x="259.14" y="43" type="line" smooth="yes"/>
      <point x="241.609" y="-39.476"/>
      <point x="274" y="-76"/>
      <point x="374.846" y="-76" type="curve"/>
      <point x="368.595" y="-96" type="line"/>
      <point x="260.564" y="-96"/>
      <point x="218.062" y="-51.4583"/>
      <point x="238.14" y="43" type="curve" smooth="yes"/>
      <point x="265.772" y="173" type="line"/>
      <point x="286.772" y="173" type="line"/>
    </contour>
  </outline>
</glyph>
<glyph name="backslash" format="1">
  <advance width="377"/>
  <unicode hex="005C"/>
  <outline>
    <contour>
      <point x="315.981" y="-113" type="line"/>
      <point x="189.234" y="815" type="line"/>
      <point x="210.234" y="815" type="line"/>
      <point x="335.981" y="-113" type="line"/>
    </contour>
  </outline>
</glyph>
<glyph name="e" format="1">
  <advance width="419"/>
  <unicode hex="0065"/>
  <outline>
    <contour>
      <point x="77.0575" y="132" type="line" smooth="yes"/>
      <point x="57" y="36"/>
      <point x="116" y="7"/>
      <point x="203.488" y="7" type="curve" smooth="yes"/>
      <point x="258" y="7"/>
      <point x="302.918" y="20"/>
      <point x="367.053" y="52" type="curve"/>
      <point x="371.439" y="35" type="line"/>
      <point x="315.588" y="4.33333"/>
      <point x="257.449" y="-12"/>
      <point x="201.449" y="-12" type="curve" smooth="yes"/>
      <point x="105" y="-12"/>
      <point x="35" y="24"/>
      <point x="58.27" y="133" type="curve" smooth="yes"/>
      <point x="101.844" y="338" type="line" smooth="yes"/>
      <point x="125" y="447"/>
      <point x="200" y="508"/>
      <point x="321.979" y="508" type="curve" smooth="yes"/>
      <point x="428" y="508"/>
      <point x="486" y="451"/>
      <point x="462.482" y="341" type="curve" smooth="yes"/>
      <point x="442.289" y="246" type="line"/>
      <point x="97.6754" y="229" type="line"/>
    </contour>
    <contour>
      <point x="443" y="342" type="line" smooth="yes"/>
      <point x="466" y="448"/>
      <point x="410" y="491"/>
      <point x="314" y="491" type="curve" smooth="yes"/>
      <point x="213" y="491"/>
      <point x="143" y="435"/>
      <point x="122" y="340" type="curve" smooth="yes"/>
      <point x="102" y="248" type="line"/>
      <point x="426" y="264" type="line"/>
    </contour>
  </outline>
</glyph>
<glyph name="i" format="1">
  <advance width="116"/>
  <unicode hex="0069"/>
  <outline>
    <contour>
      <point x="47" y="0" type="line"/>
      <point x="153.066" y="499" type="line"/>
      <point x="172.066" y="499" type="line"/>
      <point x="66" y="0" type="line"/>
    </contour>
    <contour>
      <point x="207.49" y="708" type="curve" smooth="yes"/>
      <point x="216.823" y="708"/>
      <point x="223.144" y="701.667"/>
      <point x="220.877" y="691" type="curve" smooth="yes"/>
      <point x="218.893" y="681.667"/>
      <point x="209.596" y="674"/>
      <point x="200.263" y="674" type="curve" smooth="yes"/>
      <point x="190.93" y="674"/>
      <point x="184.893" y="681.667"/>
      <point x="186.877" y="691" type="curve" smooth="yes"/>
      <point x="189.144" y="701.667"/>
      <point x="198.157" y="708"/>
    </contour>
  </outline>
</glyph>
<glyph name="u" format="1">
  <advance width="443"/>
  <unicode hex="0075"/>
  <outline>
    <contour>
      <point x="403.618" y="97" type="line"/>
      <point x="367.107" y="34.5988"/>
      <point x="297.372" y="-4.72654"/>
      <point x="226.087" y="-9" type="curve" smooth="yes"/>
      <point x="152.325" y="-13.4219"/>
      <point x="33.8228" y="-0.833836"/>
      <point x="67.1588" y="156" type="curve" smooth="yes"/>
      <point x="140.066" y="499" type="line"/>
      <point x="160.066" y="499" type="line"/>
      <point x="86.9463" y="155" type="line" smooth="yes"/>
      <point x="63.1107" y="42.8626"/>
      <point x="120.326" y="1.58914"/>
      <point x="229.913" y="9" type="curve" smooth="yes"/>
      <point x="327.544" y="15.6023"/>
      <point x="401.582" y="87.4234"/>
      <point x="418.709" y="168" type="curve" smooth="yes"/>
      <point x="489.066" y="499" type="line"/>
      <point x="510.066" y="499" type="line"/>
      <point x="404" y="0" type="line"/>
      <point x="383" y="0" type="line"/>
    </contour>
  </outline>
</glyph>
<glyph name="x" format="1">
  <advance width="390"/>
  <unicode hex="0078"/>
  <outline>
    <contour>
      <point x="253" y="265" type="line"/>
      <point x="445" y="498" type="line"/>
      <point x="467.853" y="498" type="line"/>
      <point x="261.927" y="249" type="line"/>
      <point x="359" y="0" type="line"/>
      <point x="338" y="0" type="line"/>
      <point x="249" y="233" type="line"/>
      <point x="52" y="0" type="line"/>
      <point x="29" y="0" type="line"/>
      <point x="240.139" y="250" type="line"/>
      <point x="141.853" y="498" type="line"/>
      <point x="164.853" y="498" type="line"/>
    </contour>
  </outline>
</glyph>
<glyph name="y" format="1">
  <advance width="459"/>
  <unicode hex="0079"/>
  <outline>
    <contour>
      <point x="535.066" y="499" type="line"/>
      <point x="512" y="480"/>
      <point x="500.989" y="461"/>
      <point x="491.636" y="417" type="curve" smooth="yes"/>
      <point x="388.759" y="-67" type="line" smooth="yes"/>
      <point x="371" y="-153"/>
      <point x="333" y="-186"/>
      <point x="252.938" y="-212" type="curve"/>
      <point x="250.552" y="-195" type="line"/>
      <point x="320" y="-170"/>
      <point x="356" y="-143"/>
      <point x="371.971" y="-66" type="curve" smooth="yes"/>
      <point x="407.043" y="99" type="line"/>
      <point x="370.195" y="35.2424"/>
      <point x="299.749" y="-3.71832"/>
      <point x="227.3" y="-8" type="curve" smooth="yes"/>
      <point x="152.487" y="-12.4213"/>
      <point x="34.0373" y="0.175403"/>
      <point x="67.3714" y="157" type="curve" smooth="yes"/>
      <point x="140.066" y="499" type="line"/>
      <point x="160.066" y="499" type="line"/>
      <point x="87.1589" y="156" type="line" smooth="yes"/>
      <point x="63.3247" y="43.869"/>
      <point x="121.438" y="2.57254"/>
      <point x="230.126" y="10" type="curve" smooth="yes"/>
      <point x="327.052" y="16.6237"/>
      <point x="404.798" y="88.4383"/>
      <point x="421.922" y="169" type="curve" smooth="yes"/>
      <point x="474.849" y="418" type="line" smooth="yes"/>
      <point x="484.892" y="465.25"/>
      <point x="494.727" y="485.526"/>
      <point x="524.404" y="510" type="curve"/>
    </contour>
  </outline>
</glyph>
<glyph name="z" format="1">
  <advance width="421"/>
  <unicode hex="007A"/>
  <outline>
    <contour>
      <point x="481.066" y="499" type="line"/>
      <point x="477.24" y="481" type="line"/>
      <point x="56.0386" y="19" type="line"/>
      <point x="399.039" y="19" type="line"/>
      <point x="395" y="0" type="line"/>
      <point x="29" y="0" type="line"/>
      <point x="33.0386" y="19" type="line"/>
      <point x="453.24" y="481" type="line"/>
      <point x="140.24" y="481" type="line"/>
      <point x="144.066" y="499" type="line"/>
    </contour>
  </outline>
</glyph>
<glyph name="bar" format="1">
  <advance width="103"/>
  <unicode hex="007C"/>
  <outline>
    <contour>
      <point x="17.9811" y="-113" type="line"/>
      <point x="215.234" y="815" type="line"/>
      <point x="233.234" y="815" type="line"/>
      <point x="35.9811" y="-113" type="line"/>
    </contour>
  </outline>
</glyph>
<glyph name="braceright" format="1">
  <advance width="238"/>
  <unicode hex="007D"/>
  <outline>
    <contour>
      <point x="194.296" y="820" type="line"/>
      <point x="197.895" y="817.987"/>
      <point x="296.637" y="788.669"/>
      <point x="262.485" y="628" type="curve" smooth="yes"/>
      <point x="238.467" y="515" type="line" smooth="yes"/>
      <point x="226.538" y="458.882"/>
      <point x="220.769" y="407.959"/>
      <point x="274.52" y="360" type="curve" smooth="yes"/>
      <point x="283.82" y="352" type="line"/>
      <point x="271.119" y="344" type="line" smooth="yes"/>
      <point x="196.638" y="295.82"/>
      <point x="180.897" y="244.158"/>
      <point x="169.173" y="189" type="curve" smooth="yes"/>
      <point x="145.154" y="76" type="line" smooth="yes"/>
      <point x="111.116" y="-84.1396"/>
      <point x="-1.99349" y="-117"/>
      <point x="-5.86916" y="-117" type="curve"/>
      <point x="-5.83056" y="-98" type="line"/>
      <point x="-1.85732" y="-98"/>
      <point x="97.4735" y="-68.3419"/>
      <point x="128.154" y="76" type="curve" smooth="yes"/>
      <point x="152.173" y="189" type="line" smooth="yes"/>
      <point x="164.133" y="245.268"/>
      <point x="181.937" y="299.393"/>
      <point x="253.82" y="352" type="curve"/>
      <point x="204.304" y="404.604"/>
      <point x="209.514" y="458.765"/>
      <point x="221.467" y="515" type="curve" smooth="yes"/>
      <point x="245.485" y="628" type="line" smooth="yes"/>
      <point x="276.167" y="772.346"/>
      <point x="188.981" y="801"/>
      <point x="185.258" y="801" type="curve"/>
    </contour>
  </outline>
</glyph>
<glyph name="currency" format="1">
  <advance width="443"/>
  <unicode hex="00A4"/>
  <outline>
    <contour>
      <point x="409.346" y="378" type="line"/>
      <point x="426.628" y="352.667"/>
      <point x="432.806" y="319"/>
      <point x="425.154" y="283" type="curve" smooth="yes"/>
      <point x="417.218" y="245.667"/>
      <point x="396.87" y="212.667"/>
      <point x="368.536" y="186" type="curve"/>
      <point x="432.531" y="106" type="line"/>
      <point x="416.555" y="92" type="line"/>
      <point x="351.772" y="173" type="line"/>
      <point x="321.904" y="151.667"/>
      <point x="286.12" y="137"/>
      <point x="250.12" y="137" type="curve" smooth="yes"/>
      <point x="212.787" y="137"/>
      <point x="182.904" y="151.667"/>
      <point x="160.772" y="173" type="curve"/>
      <point x="63.5552" y="92" type="line"/>
      <point x="53.531" y="106" type="line"/>
      <point x="150.536" y="186" type="line"/>
      <point x="134.87" y="212.667"/>
      <point x="128.218" y="245.667"/>
      <point x="136.154" y="283" type="curve" smooth="yes"/>
      <point x="143.806" y="319"/>
      <point x="164.628" y="352.667"/>
      <point x="191.346" y="378" type="curve"/>
      <point x="128.563" y="459" type="line"/>
      <point x="144.327" y="472" type="line"/>
      <point x="207.322" y="392" type="line"/>
      <point x="238.424" y="416"/>
      <point x="273.308" y="428"/>
      <point x="311.974" y="428" type="curve" smooth="yes"/>
      <point x="347.974" y="428"/>
      <point x="379.807" y="414.667"/>
      <point x="400.322" y="392" type="curve"/>
      <point x="497.327" y="472" type="line"/>
      <point x="507.563" y="459" type="line"/>
    </contour>
    <contour>
      <point x="254.371" y="157" type="curve" smooth="yes"/>
      <point x="321.67" y="157"/>
      <point x="390.372" y="213.46"/>
      <point x="405.154" y="283" type="curve" smooth="yes"/>
      <point x="419.482" y="350.408"/>
      <point x="374.921" y="407"/>
      <point x="307.511" y="407" type="curve" smooth="yes"/>
      <point x="238.882" y="407"/>
      <point x="169.447" y="350.245"/>
      <point x="155.154" y="283" type="curve" smooth="yes"/>
      <point x="140.338" y="213.297"/>
      <point x="185.632" y="157"/>
    </contour>
  </outline>
</glyph>
<glyph name="dieresis" format="1">
  <advance width="266"/>
  <unicode hex="00A8"/>
  <outline>
    <contour>
      <point x="207.891" y="724" type="curve" smooth="yes"/>
      <point x="218.558" y="724"/>
      <point x="223.332" y="716.667"/>
      <point x="221.065" y="706" type="curve" smooth="yes"/>
      <point x="219.081" y="696.667"/>
      <point x="211.331" y="690"/>
      <point x="200.664" y="690" type="curve" smooth="yes"/>
      <point x="191.331" y="690"/>
      <point x="185.081" y="696.667"/>
      <point x="187.065" y="706" type="curve" smooth="yes"/>
      <point x="189.332" y="716.667"/>
      <point x="198.558" y="724"/>
    </contour>
    <contour>
      <point x="365.891" y="724" type="curve" smooth="yes"/>
      <point x="375.224" y="724"/>
      <point x="381.332" y="716.667"/>
      <point x="379.065" y="706" type="curve" smooth="yes"/>
      <point x="377.081" y="696.667"/>
      <point x="367.997" y="690"/>
      <point x="358.664" y="690" type="curve" smooth="yes"/>
      <point x="349.331" y="690"/>
      <point x="344.351" y="696.929"/>
      <point x="346.065" y="706" type="curve" smooth="yes"/>
      <point x="348.425" y="716.914"/>
      <point x="356.558" y="724"/>
    </contour>
  </outline>
</glyph>
<glyph name="copyright" format="1">
  <advance width="693"/>
  <unicode hex="00A9"/>
  <outline>
    <contour>
      <point x="701.598" y="191" type="line" smooth="yes"/>
      <point x="665.354" y="20.483"/>
      <point x="515.039" y="-68"/>
      <point x="330.546" y="-68" type="curve" smooth="yes"/>
      <point x="148.407" y="-68"/>
      <point x="34.2861" y="20.1644"/>
      <point x="70.5983" y="191" type="curve" smooth="yes"/>
      <point x="97.8056" y="319" type="line" smooth="yes"/>
      <point x="134.095" y="489.728"/>
      <point x="285.058" y="579"/>
      <point x="468.07" y="579" type="curve" smooth="yes"/>
      <point x="651.7" y="579"/>
      <point x="765.16" y="490.036"/>
      <point x="728.806" y="319" type="curve" smooth="yes"/>
    </contour>
    <contour>
      <point x="711.168" y="316" type="line" smooth="yes"/>
      <point x="745.624" y="478.101"/>
      <point x="637.914" y="561"/>
      <point x="464.244" y="561" type="curve" smooth="yes"/>
      <point x="290.588" y="561"/>
      <point x="150.573" y="477.863"/>
      <point x="116.168" y="316" type="curve" smooth="yes"/>
      <point x="90.2359" y="194" type="line" smooth="yes"/>
      <point x="55.3851" y="30.0399"/>
      <point x="159.989" y="-52"/>
      <point x="333.947" y="-52" type="curve" smooth="yes"/>
      <point x="507.962" y="-52"/>
      <point x="650.926" y="32.5868"/>
      <point x="685.236" y="194" type="curve" smooth="yes"/>
    </contour>
    <contour>
      <point x="579" y="404" type="line"/>
      <point x="538" y="426"/>
      <point x="494.424" y="435"/>
      <point x="454.462" y="435" type="curve" smooth="yes"/>
      <point x="393.129" y="435"/>
      <point x="343.972" y="412.711"/>
      <point x="313.472" y="387" type="curve" smooth="yes"/>
      <point x="283.838" y="362.018"/>
      <point x="253.31" y="316.667"/>
      <point x="239.989" y="254" type="curve" smooth="yes"/>
      <point x="222.985" y="174"/>
      <point x="237.803" y="124.941"/>
      <point x="274" y="99" type="curve" smooth="yes"/>
      <point x="300.807" y="79.7886"/>
      <point x="338" y="75"/>
      <point x="377" y="75" type="curve" smooth="yes"/>
      <point x="414" y="75"/>
      <point x="483" y="84"/>
      <point x="542.169" y="109" type="curve"/>
      <point x="544.13" y="90" type="line"/>
      <point x="483.596" y="68.6667"/>
      <point x="427.328" y="58"/>
      <point x="375.328" y="58" type="curve" smooth="yes"/>
      <point x="353.995" y="58"/>
      <point x="306.531" y="56.0236"/>
      <point x="263.43" y="82" type="curve" smooth="yes"/>
      <point x="220.162" y="108.077"/>
      <point x="200.072" y="165"/>
      <point x="217.927" y="249" type="curve" smooth="yes"/>
      <point x="235.875" y="333.442"/>
      <point x="265.614" y="386.551"/>
      <point x="342.974" y="428" type="curve" smooth="yes"/>
      <point x="374.942" y="446.667"/>
      <point x="412.955" y="453"/>
      <point x="454.288" y="453" type="curve" smooth="yes"/>
      <point x="508.955" y="453"/>
      <point x="552.758" y="442.667"/>
      <point x="589.274" y="420" type="curve"/>
    </contour>
  </outline>
</glyph>
<glyph name="registered" format="1">
  <advance width="693"/>
  <unicode hex="00AE"/>
  <outline>
    <contour>
      <point x="701.598" y="191" type="line" smooth="yes"/>
      <point x="665.354" y="20.483"/>
      <point x="515.028" y="-66"/>
      <point x="330.546" y="-68" type="curve"/>
      <point x="148.418" y="-65.9939"/>
      <point x="34.2861" y="20.1644"/>
      <point x="70.5983" y="191" type="curve" smooth="yes"/>
      <point x="97.8056" y="319" type="line" smooth="yes"/>
      <point x="134.095" y="489.728"/>
      <point x="285.069" y="576.994"/>
      <point x="468.07" y="579" type="curve"/>
      <point x="651.689" y="577"/>
      <point x="765.16" y="490.036"/>
      <point x="728.806" y="319" type="curve" smooth="yes"/>
    </contour>
    <contour>
      <point x="711.168" y="316" type="line" smooth="yes"/>
      <point x="745.624" y="478.101"/>
      <point x="637.914" y="561"/>
      <point x="464.244" y="561" type="curve" smooth="yes"/>
      <point x="290.588" y="561"/>
      <point x="147.573" y="477.863"/>
      <point x="113.168" y="316" type="curve" smooth="yes"/>
      <point x="87.2359" y="194" type="line" smooth="yes"/>
      <point x="52.8752" y="32.3454"/>
      <point x="160.633" y="-50.003"/>
      <point x="333.947" y="-52" type="curve"/>
      <point x="507.95" y="-50.0048"/>
      <point x="650.926" y="32.5868"/>
      <point x="685.236" y="194" type="curve" smooth="yes"/>
    </contour>
    <contour>
      <point x="514.95" y="442" type="line" smooth="yes"/>
      <point x="577.741" y="442"/>
      <point x="614.821" y="417.87"/>
      <point x="595.719" y="328" type="curve" smooth="yes"/>
      <point x="578.431" y="246.667"/>
      <point x="541.217" y="219"/>
      <point x="485.7" y="215" type="curve"/>
      <point x="534.541" y="59" type="line"/>
      <point x="514.541" y="59" type="line"/>
      <point x="464.062" y="212" type="line"/>
      <point x="251.062" y="212" type="line"/>
      <point x="218.541" y="59" type="line"/>
      <point x="198.541" y="59" type="line"/>
      <point x="279.95" y="442" type="line"/>
    </contour>
    <contour>
      <point x="478.313" y="232" type="line" smooth="yes"/>
      <point x="538.313" y="232"/>
      <point x="563.619" y="261.667"/>
      <point x="577.506" y="327" type="curve"/>
      <point x="590.343" y="393.667"/>
      <point x="576.032" y="422"/>
      <point x="518.699" y="422" type="curve" smooth="yes"/>
      <point x="295.699" y="422" type="line"/>
      <point x="255.313" y="232" type="line"/>
    </contour>
  </outline>
</glyph>
<glyph name="mu" format="1">
  <advance width="462"/>
  <unicode hex="00B5"/>
  <outline>
    <contour>
      <point x="424.066" y="70.196" type="line" smooth="yes"/>
      <point x="418.097" y="42.1176"/>
      <point x="418.91" y="27.0756"/>
      <point x="433.336" y="10.028" type="curve"/>
      <point x="419.747" y="-2.0056" type="line"/>
      <point x="421.752" y="-2.0056"/>
      <point x="392.711" y="17.0476"/>
      <point x="403.094" y="61.1708" type="curve"/>
      <point x="371.652" y="17.0476"/>
      <point x="311.894" y="-14.0392"/>
      <point x="243.704" y="-14.0392" type="curve" smooth="yes"/>
      <point x="171.502" y="-14.0392"/>
      <point x="96.4584" y="15.042"/>
      <point x="76.3476" y="90.252" type="curve"/>
      <point x="12.1744" y="-211.591" type="line"/>
      <point x="-5.5996" y="-205.574" type="line"/>
      <point x="145.496" y="500.397" type="line"/>
      <point x="163.546" y="500.397" type="line"/>
      <point x="92.7008" y="162.454" type="line" smooth="yes"/>
      <point x="75.4316" y="81.2268"/>
      <point x="122.981" y="3.0084"/>
      <point x="244.32" y="3.0084" type="curve" smooth="yes"/>
      <point x="327.552" y="3.0084"/>
      <point x="401.602" y="54.1512"/>
      <point x="418.871" y="135.378" type="curve" smooth="yes"/>
      <point x="497.755" y="506.414" type="line"/>
      <point x="517.448" y="509.422" type="line"/>
    </contour>
  </outline>
</glyph>
<glyph name="paragraph" format="1">
  <advance width="603"/>
  <unicode hex="00B6"/>
  <outline>
    <contour>
      <point x="278.941" y="282" type="line" smooth="yes"/>
      <point x="145.473" y="282"/>
      <point x="104.7" y="356.14"/>
      <point x="133.79" y="493" type="curve" smooth="yes"/>
      <point x="161.572" y="623.704"/>
      <point x="235.419" y="700"/>
      <point x="360.79" y="700" type="curve" smooth="yes"/>
      <point x="708.79" y="700" type="line"/>
      <point x="560.213" y="1" type="line"/>
      <point x="540.213" y="1" type="line"/>
      <point x="684.326" y="680" type="line"/>
      <point x="605.751" y="680" type="line"/>
      <point x="461.213" y="1" type="line"/>
      <point x="442.213" y="1" type="line"/>
      <point x="501.941" y="282" type="line"/>
    </contour>
    <contour>
      <point x="355.538" y="680" type="line" smooth="yes"/>
      <point x="240.8" y="680"/>
      <point x="177.14" y="612.261"/>
      <point x="151.79" y="493" type="curve" smooth="yes"/>
      <point x="125.691" y="370.214"/>
      <point x="162.392" y="300"/>
      <point x="284.767" y="300" type="curve" smooth="yes"/>
      <point x="505.767" y="300" type="line"/>
      <point x="586.538" y="680" type="line"/>
    </contour>
  </outline>
</glyph>
<glyph name="cedilla" format="1">
  <advance width="266"/>
  <unicode hex="00B8"/>
  <outline>
    <contour>
      <point x="150" y="0" type="line"/>
      <point x="113.22" y="-46" type="line"/>
      <point x="135.887" y="-46"/>
      <point x="141.887" y="-46"/>
      <point x="147.22" y="-46" type="curve" smooth="yes"/>
      <point x="198.887" y="-46"/>
      <point x="229.738" y="-85.9"/>
      <point x="219.086" y="-136" type="curve" smooth="yes"/>
      <point x="207.604" y="-190.009"/>
      <point x="162.888" y="-222.735"/>
      <point x="109.952" y="-226" type="curve"/>
      <point x="64.982" y="-226"/>
      <point x="44.4751" y="-221.114"/>
      <point x="11.7162" y="-213" type="curve"/>
      <point x="15.3807" y="-205.078"/>
      <point x="17.3393" y="-204.627"/>
      <point x="21.3304" y="-196" type="curve"/>
      <point x="20.4314" y="-195.917"/>
      <point x="63.0029" y="-210.083"/>
      <point x="112.992" y="-207" type="curve"/>
      <point x="130.374" y="-205.113"/>
      <point x="186.737" y="-198.793"/>
      <point x="200.086" y="-136" type="curve" smooth="yes"/>
      <point x="208.59" y="-96"/>
      <point x="185.422" y="-67"/>
      <point x="142.756" y="-67" type="curve" smooth="yes"/>
      <point x="126.756" y="-67"/>
      <point x="107.089" y="-67"/>
      <point x="85.7558" y="-67" type="curve"/>
      <point x="90.2204" y="-46" type="line"/>
      <point x="129" y="0" type="line"/>
    </contour>
  </outline>
</glyph>
<glyph name="Eth" format="1">
  <advance width="494"/>
  <unicode hex="00D0"/>
  <outline>
    <component base="D"/>
    <contour>
      <point x="133.535" y="393" type="line"/>
      <point x="137.361" y="411" type="line"/>
      <point x="374.361" y="411" type="line"/>
      <point x="364.535" y="393" type="line"/>
    </contour>
  </outline>
</glyph>
<glyph name="Oslash" format="1">
  <advance width="486"/>
  <unicode hex="00D8"/>
  <outline>
    <component base="O"/>
    <contour>
      <point x="79.9811" y="-113" type="line"/>
      <point x="599.234" y="815" type="line"/>
      <point x="620.234" y="815" type="line"/>
      <point x="99.9811" y="-113" type="line"/>
    </contour>
  </outline>
</glyph>
<glyph name="Thorn" format="1">
  <advance width="398"/>
  <unicode hex="00DE"/>
  <outline>
    <contour>
      <point x="431" y="290" type="line" smooth="yes"/>
      <point x="409" y="193"/>
      <point x="355" y="141"/>
      <point x="283" y="119" type="curve" smooth="yes"/>
      <point x="223" y="101"/>
      <point x="146" y="102"/>
      <point x="86" y="120" type="curve"/>
      <point x="60" y="0" type="line"/>
      <point x="41" y="0" type="line"/>
      <point x="190" y="700" type="line"/>
      <point x="209" y="700" type="line"/>
      <point x="188" y="599" type="line"/>
      <point x="247" y="623"/>
      <point x="313" y="633"/>
      <point x="364" y="622" type="curve" smooth="yes"/>
      <point x="460" y="601"/>
      <point x="479" y="519"/>
      <point x="462" y="436" type="curve" smooth="yes"/>
    </contour>
    <contour>
      <point x="353" y="604" type="curve" smooth="yes"/>
      <point x="306" y="614"/>
      <point x="244" y="605"/>
      <point x="183" y="576" type="curve"/>
      <point x="89" y="138" type="line"/>
      <point x="114" y="132"/>
      <point x="202" y="113"/>
      <point x="284" y="138" type="curve" smooth="yes"/>
      <point x="361" y="162"/>
      <point x="396" y="216"/>
      <point x="412" y="292" type="curve" smooth="yes"/>
      <point x="441" y="430" type="line" smooth="yes"/>
      <point x="459" y="509"/>
      <point x="441" y="583"/>
    </contour>
  </outline>
</glyph>
<glyph name="germandbls" format="1">
  <advance width="464"/>
  <unicode hex="00DF"/>
  <outline>
    <contour>
      <point x="59" y="0" type="line"/>
      <point x="39" y="0" type="line"/>
      <point x="155" y="543" type="line" smooth="yes"/>
      <point x="181" y="667"/>
      <point x="254" y="700"/>
      <point x="315" y="700" type="curve" smooth="yes"/>
      <point x="388" y="700"/>
      <point x="421" y="639"/>
      <point x="409" y="585" type="curve" smooth="yes"/>
      <point x="400" y="542"/>
      <point x="369" y="500"/>
      <point x="320" y="494" type="curve"/>
      <point x="315" y="494"/>
      <point x="312" y="494"/>
      <point x="309" y="494" type="curve"/>
      <point x="296" y="476"/>
      <point x="289" y="459"/>
      <point x="287" y="444" type="curve" smooth="yes"/>
      <point x="277" y="377"/>
      <point x="353" y="340"/>
      <point x="421" y="277" type="curve" smooth="yes"/>
      <point x="461" y="240"/>
      <point x="478" y="190"/>
      <point x="467" y="136" type="curve" smooth="yes"/>
      <point x="454" y="59"/>
      <point x="381" y="-11"/>
      <point x="281" y="-11" type="curve" smooth="yes"/>
      <point x="187" y="-11"/>
      <point x="148" y="30"/>
      <point x="141" y="36" type="curve"/>
      <point x="155" y="51" type="line"/>
      <point x="160" y="47"/>
      <point x="198" y="9"/>
      <point x="278" y="9" type="curve" smooth="yes"/>
      <point x="389" y="9"/>
      <point x="433" y="84"/>
      <point x="444" y="137" type="curve" smooth="yes"/>
      <point x="462" y="219"/>
      <point x="417" y="255"/>
      <point x="368" y="295" type="curve" smooth="yes"/>
      <point x="314" y="340"/>
      <point x="255" y="381"/>
      <point x="270" y="447" type="curve" smooth="yes"/>
      <point x="274" y="465"/>
      <point x="282" y="485"/>
      <point x="298" y="507" type="curve"/>
      <point x="352" y="507"/>
      <point x="385" y="544"/>
      <point x="392" y="584" type="curve" smooth="yes"/>
      <point x="400" y="630"/>
      <point x="375" y="682"/>
      <point x="312" y="682" type="curve" smooth="yes"/>
      <point x="240" y="682"/>
      <point x="194" y="635"/>
      <point x="174" y="541" type="curve" smooth="yes"/>
    </contour>
  </outline>
</glyph>
<glyph name="divide" format="1">
  <advance width="383"/>
  <unicode hex="00F7"/>
  <outline>
    <contour>
      <point x="109.071" y="372" type="line"/>
      <point x="113.535" y="393" type="line"/>
      <point x="432.535" y="393" type="line"/>
      <point x="428.071" y="372" type="line"/>
    </contour>
    <contour>
      <point x="302.23" y="528" type="curve" smooth="yes"/>
      <point x="312.897" y="528"/>
      <point x="318.671" y="520.667"/>
      <point x="316.404" y="510" type="curve" smooth="yes"/>
      <point x="314.703" y="502"/>
      <point x="305.67" y="494"/>
      <point x="295.003" y="494" type="curve" smooth="yes"/>
      <point x="287.003" y="494"/>
      <point x="280.703" y="502"/>
      <point x="282.404" y="510" type="curve" smooth="yes"/>
      <point x="284.671" y="520.667"/>
      <point x="294.23" y="528"/>
    </contour>
    <contour>
      <point x="247.603" y="271" type="curve" smooth="yes"/>
      <point x="258.269" y="271"/>
      <point x="264.257" y="264.667"/>
      <point x="261.989" y="254" type="curve" smooth="yes"/>
      <point x="260.005" y="244.667"/>
      <point x="251.255" y="238"/>
      <point x="240.588" y="238" type="curve" smooth="yes"/>
      <point x="232.588" y="238"/>
      <point x="226.005" y="244.667"/>
      <point x="227.989" y="254" type="curve" smooth="yes"/>
      <point x="230.257" y="264.667"/>
      <point x="239.603" y="271"/>
    </contour>
  </outline>
</glyph>
<glyph name="oslash" format="1">
  <advance width="426"/>
  <unicode hex="00F8"/>
  <outline>
    <component base="o"/>
    <contour>
      <point x="451.836" y="512.289" type="line"/>
      <point x="99.8726" y="-19.8668" type="line"/>
      <point x="78.8726" y="-19.8668" type="line"/>
      <point x="430.836" y="512.289" type="line"/>
    </contour>
  </outline>
</glyph>
<glyph name="hbar" format="1">
  <advance width="468"/>
  <unicode hex="0127"/>
  <outline>
    <contour>
      <point x="385.471" y="595" type="line"/>
      <point x="150.471" y="595" type="line"/>
      <point x="154.722" y="615" type="line"/>
      <point x="389.722" y="615" type="line"/>
    </contour>
    <contour>
      <point x="187.114" y="471" type="line"/>
      <point x="233.469" y="490.36"/>
      <point x="289.835" y="505.456"/>
      <point x="339.979" y="508" type="curve" smooth="yes"/>
      <point x="427.793" y="513.254"/>
      <point x="542.619" y="501.602"/>
      <point x="509.332" y="345" type="curve" smooth="yes"/>
      <point x="436" y="0" type="line"/>
      <point x="417" y="0" type="line"/>
      <point x="490.545" y="346" type="line" smooth="yes"/>
      <point x="514.671" y="459.506"/>
      <point x="458.875" y="498.99"/>
      <point x="349.79" y="493" type="curve" smooth="yes"/>
      <point x="291.89" y="490.333"/>
      <point x="223.256" y="471.667"/>
      <point x="183.288" y="453" type="curve"/>
      <point x="87" y="0" type="line"/>
      <point x="67" y="0" type="line"/>
      <point x="215.364" y="698" type="line"/>
      <point x="235.364" y="698" type="line"/>
    </contour>
  </outline>
</glyph>
<glyph name="ij" format="1">
  <advance width="459"/>
  <unicode hex="0133"/>
  <outline>
    <contour>
      <point x="207.49" y="708" type="curve" smooth="yes"/>
      <point x="216.823" y="708"/>
      <point x="223.144" y="701.667"/>
      <point x="220.877" y="691" type="curve" smooth="yes"/>
      <point x="218.893" y="681.667"/>
      <point x="209.596" y="674"/>
      <point x="200.263" y="674" type="curve" smooth="yes"/>
      <point x="190.93" y="674"/>
      <point x="184.893" y="681.667"/>
      <point x="186.877" y="691" type="curve" smooth="yes"/>
      <point x="189.144" y="701.667"/>
      <point x="198.157" y="708"/>
    </contour>
    <contour>
      <point x="569.877" y="691" type="curve" smooth="yes"/>
      <point x="567.893" y="681.667"/>
      <point x="559.93" y="674"/>
      <point x="549.263" y="674" type="curve" smooth="yes"/>
      <point x="539.93" y="674"/>
      <point x="534.893" y="681.667"/>
      <point x="536.877" y="691" type="curve" smooth="yes"/>
      <point x="539.144" y="701.667"/>
      <point x="546.944" y="707"/>
      <point x="556.278" y="707" type="curve" smooth="yes"/>
      <point x="566.944" y="707"/>
      <point x="572.144" y="701.667"/>
    </contour>
    <contour>
      <point x="504.066" y="499" type="line"/>
      <point x="521.066" y="499" type="line"/>
      <point x="400.759" y="-67" type="line" smooth="yes"/>
      <point x="383" y="-153"/>
      <point x="345" y="-186"/>
      <point x="264.938" y="-212" type="curve"/>
      <point x="262.552" y="-195" type="line"/>
      <point x="332" y="-170"/>
      <point x="368" y="-143"/>
      <point x="383.971" y="-66" type="curve" smooth="yes"/>
      <point x="419.043" y="99" type="line"/>
      <point x="382.195" y="35.2424"/>
      <point x="312" y="-4"/>
      <point x="239.3" y="-8" type="curve" smooth="yes"/>
      <point x="164" y="-12"/>
      <point x="46.0373" y="0.175403"/>
      <point x="79.3714" y="157" type="curve" smooth="yes"/>
      <point x="152.066" y="499" type="line"/>
      <point x="172.066" y="499" type="line"/>
      <point x="99.1589" y="156" type="line" smooth="yes"/>
      <point x="75.3247" y="43.869"/>
      <point x="133" y="3"/>
      <point x="242.126" y="10" type="curve" smooth="yes"/>
      <point x="339" y="17"/>
      <point x="416.798" y="88.4383"/>
      <point x="433.922" y="169" type="curve" smooth="yes"/>
    </contour>
  </outline>
</glyph>
<glyph name="Eng" format="1">
  <advance width="576"/>
  <unicode hex="014A"/>
  <outline>
    <contour>
      <point x="518.759" y="-67" type="line" smooth="yes"/>
      <point x="508.839" y="-113.667"/>
      <point x="491.067" y="-148.667"/>
      <point x="459.015" y="-174" type="curve" smooth="yes"/>
      <point x="439.614" y="-190"/>
      <point x="413.872" y="-201.333"/>
      <point x="380.938" y="-212" type="curve"/>
      <point x="379.552" y="-195" type="line"/>
      <point x="412.769" y="-183"/>
      <point x="423.973" y="-177.333"/>
      <point x="448.991" y="-160" type="curve" smooth="yes"/>
      <point x="474.292" y="-141.333"/>
      <point x="492.335" y="-111.333"/>
      <point x="501.971" y="-66" type="curve" smooth="yes"/>
      <point x="516.213" y="1" type="line"/>
      <point x="202.988" y="668" type="line"/>
      <point x="61" y="0" type="line"/>
      <point x="41" y="0" type="line"/>
      <point x="189.364" y="698" type="line"/>
      <point x="208.364" y="698" type="line"/>
      <point x="523.014" y="33" type="line"/>
      <point x="664.364" y="698" type="line"/>
      <point x="681.364" y="698" type="line"/>
    </contour>
  </outline>
</glyph>
<glyph name="eng" format="1">
  <advance width="442"/>
  <unicode hex="014B"/>
  <outline>
    <contour>
      <point x="395.797" y="-48" type="line" smooth="yes"/>
      <point x="385.311" y="-97.3333"/>
      <point x="367.488" y="-131"/>
      <point x="337.054" y="-155" type="curve" smooth="yes"/>
      <point x="316.036" y="-172.333"/>
      <point x="290.485" y="-184.333"/>
      <point x="257.551" y="-195" type="curve"/>
      <point x="255.377" y="-177" type="line"/>
      <point x="290.829" y="-164.193"/>
      <point x="295.58" y="-162.181"/>
      <point x="325.817" y="-142" type="curve"/>
      <point x="351.118" y="-123.333"/>
      <point x="366.445" y="-92"/>
      <point x="375.797" y="-48" type="curve" smooth="yes"/>
      <point x="459.545" y="346" type="line" smooth="yes"/>
      <point x="483.669" y="459.499"/>
      <point x="429.893" y="498.991"/>
      <point x="320.79" y="493" type="curve" smooth="yes"/>
      <point x="260.224" y="490.333"/>
      <point x="194.589" y="471.667"/>
      <point x="153.288" y="453" type="curve"/>
      <point x="57" y="0" type="line"/>
      <point x="38" y="0" type="line"/>
      <point x="143.853" y="498" type="line"/>
      <point x="162.853" y="498" type="line"/>
      <point x="157.114" y="471" type="line"/>
      <point x="204.679" y="490.138"/>
      <point x="259.714" y="505.399"/>
      <point x="310.979" y="508" type="curve" smooth="yes"/>
      <point x="398.483" y="513.236"/>
      <point x="512.644" y="501.722"/>
      <point x="479.332" y="345" type="curve" smooth="yes"/>
    </contour>
  </outline>
</glyph>
<glyph name="Tbar" format="1">
  <advance width="457"/>
  <unicode hex="0166"/>
  <outline>
    <contour>
      <point x="105.346" y="378" type="line"/>
      <point x="505.346" y="378" type="line"/>
      <point x="501.308" y="359" type="line"/>
      <point x="101.308" y="359" type="line"/>
    </contour>
    <contour>
      <point x="377.113" y="678" type="line"/>
      <point x="233" y="0" type="line"/>
      <point x="215" y="0" type="line"/>
      <point x="358.113" y="678" type="line"/>
      <point x="169.113" y="678" type="line"/>
      <point x="173.364" y="698" type="line"/>
      <point x="575.364" y="698" type="line"/>
      <point x="571.113" y="678" type="line"/>
    </contour>
  </outline>
</glyph>
<glyph name="dotlessj" format="1">
  <advance width="169"/>
  <unicode hex="0237"/>
  <outline>
    <contour>
      <point x="115.55" y="-68" type="line" smooth="yes"/>
      <point x="98.3375" y="-149"/>
      <point x="59.625" y="-190"/>
      <point x="-21.2625" y="-213" type="curve"/>
      <point x="-23.65" y="-196" type="line"/>
      <point x="48.875" y="-170"/>
      <point x="82.4" y="-144"/>
      <point x="98.7625" y="-67" type="curve" smooth="yes"/>
      <point x="215.213" y="481" type="line"/>
      <point x="130.213" y="481" type="line"/>
      <point x="134.038" y="499" type="line"/>
      <point x="236.038" y="499" type="line"/>
    </contour>
  </outline>
</glyph>
<glyph name="circumflex" format="1">
  <advance width="266"/>
  <unicode hex="02C6"/>
  <outline>
    <contour>
      <point x="392.162" y="650" type="line"/>
      <point x="375.186" y="638" type="line"/>
      <point x="291.079" y="741" type="line"/>
      <point x="160.186" y="636" type="line"/>
      <point x="149.162" y="650" type="line"/>
      <point x="296.456" y="769" type="line"/>
    </contour>
  </outline>
</glyph>
<glyph name="dotaccent" format="1">
  <advance width="266"/>
  <unicode hex="02D9"/>
  <outline>
    <contour>
      <point x="288.591" y="732" type="curve" smooth="yes"/>
      <point x="297.925" y="732"/>
      <point x="303.033" y="724.667"/>
      <point x="300.765" y="714" type="curve" smooth="yes"/>
      <point x="298.781" y="704.667"/>
      <point x="290.485" y="697"/>
      <point x="281.152" y="697" type="curve" smooth="yes"/>
      <point x="271.819" y="697"/>
      <point x="265.781" y="704.667"/>
      <point x="267.765" y="714" type="curve" smooth="yes"/>
      <point x="270.033" y="724.667"/>
      <point x="279.258" y="732"/>
    </contour>
  </outline>
</glyph>
<glyph name="ring" format="1">
  <advance width="266"/>
  <unicode hex="02DA"/>
  <outline>
    <contour>
      <point x="297.306" y="773" type="curve" smooth="yes"/>
      <point x="358.728" y="773"/>
      <point x="399.821" y="723.67"/>
      <point x="386.287" y="660" type="curve" smooth="yes"/>
      <point x="372.632" y="595.757"/>
      <point x="310.353" y="546"/>
      <point x="249.056" y="546" type="curve" smooth="yes"/>
      <point x="186.94" y="546"/>
      <point x="145.607" y="595.638"/>
      <point x="159.287" y="660" type="curve" smooth="yes"/>
      <point x="172.795" y="723.551"/>
      <point x="235.315" y="773"/>
    </contour>
    <contour>
      <point x="293.268" y="754" type="curve" smooth="yes"/>
      <point x="267.268" y="754"/>
      <point x="242.986" y="744.833"/>
      <point x="220.422" y="726.5" type="curve" smooth="yes"/>
      <point x="197.859" y="708.167"/>
      <point x="183.814" y="686"/>
      <point x="178.287" y="660" type="curve" smooth="yes"/>
      <point x="172.14" y="631.081"/>
      <point x="179.365" y="605.592"/>
      <point x="195.558" y="588.317" type="curve" smooth="yes"/>
      <point x="209.228" y="573.731"/>
      <point x="229.29" y="565"/>
      <point x="253.094" y="565" type="curve" smooth="yes"/>
      <point x="278.428" y="565"/>
      <point x="302.376" y="574.167"/>
      <point x="324.94" y="592.5" type="curve" smooth="yes"/>
      <point x="347.503" y="610.833"/>
      <point x="361.619" y="633.333"/>
      <point x="367.287" y="660" type="curve" smooth="yes"/>
      <point x="372.823" y="686.043"/>
      <point x="366.956" y="709.578"/>
      <point x="353.355" y="726.585" type="curve" smooth="yes"/>
      <point x="339.798" y="743.535"/>
      <point x="318.559" y="754"/>
    </contour>
  </outline>
</glyph>
<glyph name="tilde" format="1">
  <advance width="266"/>
  <unicode hex="02DC"/>
  <outline>
    <contour>
      <point x="369.64" y="704" type="line"/>
      <point x="389.64" y="704" type="line"/>
      <point x="387.727" y="695" type="line" smooth="yes"/>
      <point x="381.208" y="664.333"/>
      <point x="362.457" y="631"/>
      <point x="325.123" y="631" type="curve" smooth="yes"/>
      <point x="309.123" y="631"/>
      <point x="297.419" y="638.667"/>
      <point x="284.737" y="648" type="curve" smooth="yes"/>
      <point x="269.671" y="658.667"/>
      <point x="256.221" y="670.667"/>
      <point x="243.538" y="680" type="curve" smooth="yes"/>
      <point x="232.956" y="686.667"/>
      <point x="217.877" y="691"/>
      <point x="204.176" y="683" type="curve" smooth="yes"/>
      <point x="190.476" y="675"/>
      <point x="185.508" y="656.333"/>
      <point x="182.674" y="643" type="curve" smooth="yes"/>
      <point x="180.973" y="635" type="line"/>
      <point x="160.973" y="635" type="line"/>
      <point x="162.674" y="643" type="line" smooth="yes"/>
      <point x="167.208" y="664.333"/>
      <point x="176.402" y="690.333"/>
      <point x="200.002" y="701" type="curve"/>
      <point x="225.503" y="714.333"/>
      <point x="249.498" y="703.333"/>
      <point x="266.664" y="690" type="curve" smooth="yes"/>
      <point x="278.014" y="680.667"/>
      <point x="288.121" y="673.333"/>
      <point x="298.138" y="664" type="curve"/>
      <point x="307.671" y="658.667"/>
      <point x="315.374" y="651"/>
      <point x="327.374" y="651" type="curve"/>
      <point x="353.758" y="649.667"/>
      <point x="363.192" y="673.667"/>
      <point x="367.727" y="695" type="curve" smooth="yes"/>
    </contour>
  </outline>
</glyph>
<glyph name="hungarumlaut" format="1">
  <advance width="266"/>
  <unicode hex="02DD"/>
  <outline>
    <contour>
      <point x="286.964" y="682" type="curve" smooth="yes"/>
      <point x="210.708" y="582" type="line"/>
      <point x="189.708" y="582" type="line"/>
      <point x="263.939" y="696" type="line" smooth="yes"/>
      <point x="269.923" y="705.333"/>
      <point x="280.986" y="710.333"/>
      <point x="287.852" y="705" type="curve" smooth="yes"/>
      <point x="295.002" y="701"/>
      <point x="293.997" y="690"/>
    </contour>
    <contour>
      <point x="398.964" y="682" type="curve" smooth="yes"/>
      <point x="321.708" y="582" type="line"/>
      <point x="300.708" y="582" type="line"/>
      <point x="375.939" y="696" type="line" smooth="yes"/>
      <point x="381.923" y="705.333"/>
      <point x="392.456" y="709.259"/>
      <point x="398.852" y="705" type="curve" smooth="yes"/>
      <point x="406.659" y="699.802"/>
      <point x="404.664" y="690"/>
    </contour>
  </outline>
</glyph>
<glyph name="uni0307" format="1">
  <advance width="266"/>
  <unicode hex="0307"/>
  <outline>
    <contour>
      <point x="297" y="732"/>
      <point x="303" y="725"/>
      <point x="300" y="714" type="curve"/>
      <point x="299" y="705"/>
      <point x="290" y="697"/>
      <point x="281" y="697" type="curve" smooth="yes"/>
      <point x="272" y="697"/>
      <point x="266" y="705"/>
      <point x="267" y="714" type="curve"/>
      <point x="270" y="726"/>
      <point x="277" y="732"/>
      <point x="288" y="732" type="curve" smooth="yes"/>
    </contour>
  </outline>
</glyph>
<glyph name="Deltagreek" format="1">
  <advance width="542"/>
  <unicode hex="0394"/>
  <outline>
    <contour>
      <point x="524" y="0" type="line"/>
      <point x="20" y="0" type="line"/>
      <point x="408.364" y="698" type="line"/>
      <point x="427.364" y="698" type="line"/>
    </contour>
    <contour>
      <point x="52.2511" y="20" type="line"/>
      <point x="501.251" y="20" type="line"/>
      <point x="413.051" y="673" type="line"/>
    </contour>
  </outline>
</glyph>
<glyph name="Eta" format="1">
  <advance width="513"/>
  <unicode hex="0397"/>
  <outline>
    <contour>
      <point x="538.361" y="411" type="line"/>
      <point x="599.364" y="698" type="line"/>
      <point x="618.364" y="698" type="line"/>
      <point x="470" y="0" type="line"/>
      <point x="451" y="0" type="line"/>
      <point x="534.535" y="393" type="line"/>
      <point x="143.535" y="393" type="line"/>
      <point x="60" y="0" type="line"/>
      <point x="41" y="0" type="line"/>
      <point x="189.364" y="698" type="line"/>
      <point x="208.364" y="698" type="line"/>
      <point x="147.361" y="411" type="line"/>
    </contour>
  </outline>
</glyph>
<glyph name="Xi" format="1">
  <advance width="559"/>
  <unicode hex="039E"/>
  <outline>
    <contour>
      <point x="148.046" y="593" type="line"/>
      <point x="185.25" y="667.667"/>
      <point x="236.698" y="698"/>
      <point x="315.364" y="698" type="curve" smooth="yes"/>
      <point x="639.364" y="698" type="line"/>
      <point x="626.113" y="678" type="line"/>
      <point x="311.113" y="678" type="line" smooth="yes"/>
      <point x="235.785" y="678"/>
      <point x="200.981" y="649.213"/>
      <point x="164.558" y="586" type="curve"/>
    </contour>
    <contour>
      <point x="486.694" y="342" type="line"/>
      <point x="220.694" y="342" type="line"/>
      <point x="224.945" y="362" type="line"/>
      <point x="490.945" y="362" type="line"/>
    </contour>
    <contour>
      <point x="389.251" y="20" type="line" smooth="yes"/>
      <point x="465.529" y="20"/>
      <point x="499.535" y="47.9987"/>
      <point x="535.019" y="113" type="curve"/>
      <point x="552.531" y="106" type="line"/>
      <point x="516.66" y="31.3333"/>
      <point x="463.667" y="0"/>
      <point x="385" y="0" type="curve" smooth="yes"/>
      <point x="62" y="0" type="line"/>
      <point x="74.2511" y="20" type="line"/>
    </contour>
  </outline>
</glyph>
<glyph name="Chi" format="1">
  <advance width="557"/>
  <unicode hex="03A7"/>
  <outline>
    <contour>
      <point x="358.984" y="381" type="line"/>
      <point x="638.364" y="698" type="line"/>
      <point x="667" y="698" type="line"/>
      <point x="369" y="360" type="line"/>
      <point x="534" y="0" type="line"/>
      <point x="509" y="0" type="line"/>
      <point x="354" y="341" type="line"/>
      <point x="53" y="0" type="line"/>
      <point x="25" y="0" type="line"/>
      <point x="344.158" y="363" type="line"/>
      <point x="191.364" y="698" type="line"/>
      <point x="213.364" y="698" type="line"/>
    </contour>
  </outline>
</glyph>
<glyph name="Psi" format="1">
  <advance width="591"/>
  <unicode hex="03A8"/>
  <outline>
    <contour>
      <point x="138" y="406" type="line" smooth="yes"/>
      <point x="112" y="285"/>
      <point x="166" y="230"/>
      <point x="268" y="230" type="curve" smooth="yes"/>
      <point x="330" y="230" type="line"/>
      <point x="430" y="700" type="line"/>
      <point x="450" y="700" type="line"/>
      <point x="350" y="230" type="line"/>
      <point x="420" y="230" type="line" smooth="yes"/>
      <point x="531" y="230"/>
      <point x="603" y="294"/>
      <point x="627" y="406" type="curve" smooth="yes"/>
      <point x="668" y="599" type="line" smooth="yes"/>
      <point x="683" y="670"/>
      <point x="654" y="688"/>
      <point x="635" y="702" type="curve"/>
      <point x="654" y="709" type="line"/>
      <point x="663" y="705"/>
      <point x="702" y="678"/>
      <point x="685" y="600" type="curve" smooth="yes"/>
      <point x="644" y="406" type="line" smooth="yes"/>
      <point x="618" y="285"/>
      <point x="543" y="213"/>
      <point x="416" y="213" type="curve" smooth="yes"/>
      <point x="346" y="213" type="line"/>
      <point x="301" y="0" type="line"/>
      <point x="281" y="0" type="line"/>
      <point x="326" y="213" type="line"/>
      <point x="265" y="213" type="line" smooth="yes"/>
      <point x="139" y="213"/>
      <point x="92" y="285"/>
      <point x="118" y="406" type="curve" smooth="yes"/>
      <point x="180" y="700" type="line"/>
      <point x="200" y="700" type="line"/>
    </contour>
  </outline>
</glyph>
<glyph name="delta" format="1">
  <advance width="429"/>
  <unicode hex="03B4"/>
  <outline>
    <contour>
      <point x="383.751" y="681" type="line" smooth="yes"/>
      <point x="341.063" y="681"/>
      <point x="282.822" y="668.292"/>
      <point x="269" y="610" type="curve" smooth="yes"/>
      <point x="256.042" y="555.354"/>
      <point x="294.453" y="525.676"/>
      <point x="325.554" y="504" type="curve" smooth="yes"/>
      <point x="345" y="490"/>
      <point x="359" y="481"/>
      <point x="371" y="471" type="curve" smooth="yes"/>
      <point x="384" y="461"/>
      <point x="396" y="452"/>
      <point x="412" y="438" type="curve" smooth="yes"/>
      <point x="459.737" y="397.722"/>
      <point x="472.715" y="346.803"/>
      <point x="459.579" y="285" type="curve" smooth="yes"/>
      <point x="437.898" y="183" type="line" smooth="yes"/>
      <point x="410.974" y="56.3333"/>
      <point x="334.329" y="-11"/>
      <point x="211.662" y="-11" type="curve" smooth="yes"/>
      <point x="84.9952" y="-11"/>
      <point x="40.3911" y="63"/>
      <point x="65.8978" y="183" type="curve" smooth="yes"/>
      <point x="92.8925" y="310" type="line" smooth="yes"/>
      <point x="105.646" y="370"/>
      <point x="137.316" y="421.132"/>
      <point x="177.288" y="455" type="curve" smooth="yes"/>
      <point x="209.195" y="482.035"/>
      <point x="247.284" y="498.795"/>
      <point x="288" y="507" type="curve"/>
      <point x="277.254" y="517" type="line" smooth="yes"/>
      <point x="251.799" y="539.91"/>
      <point x="241.727" y="575.059"/>
      <point x="249" y="608" type="curve" smooth="yes"/>
      <point x="266" y="685"/>
      <point x="341.208" y="698"/>
      <point x="387.364" y="698" type="curve" smooth="yes"/>
      <point x="499.364" y="698" type="line"/>
      <point x="485.751" y="681" type="line"/>
    </contour>
    <contour>
      <point x="442" y="292" type="line" smooth="yes"/>
      <point x="455.04" y="350.951"/>
      <point x="435.705" y="397.445"/>
      <point x="386.721" y="434" type="curve" smooth="yes"/>
      <point x="309" y="492" type="line"/>
      <point x="265.611" y="487.95"/>
      <point x="220.788" y="472.252"/>
      <point x="183.1" y="439" type="curve" smooth="yes"/>
      <point x="144.58" y="405.014"/>
      <point x="122.45" y="359.667"/>
      <point x="111.68" y="309" type="curve" smooth="yes"/>
      <point x="84.8979" y="183" type="line" smooth="yes"/>
      <point x="65.3729" y="91.1423"/>
      <point x="87.9629" y="8"/>
      <point x="212.7" y="8" type="curve" smooth="yes"/>
      <point x="340.362" y="8"/>
      <point x="395.058" y="80.7593"/>
      <point x="418.11" y="184" type="curve" smooth="yes"/>
    </contour>
  </outline>
</glyph>
<glyph name="epsilon" format="1">
  <advance width="392"/>
  <unicode hex="03B5"/>
  <outline>
    <contour>
      <point x="400.752" y="474" type="line"/>
      <point x="378.182" y="483.867"/>
      <point x="326.956" y="492"/>
      <point x="303.578" y="492" type="curve" smooth="yes"/>
      <point x="233.804" y="492"/>
      <point x="162.576" y="459.061"/>
      <point x="146.834" y="385" type="curve" smooth="yes"/>
      <point x="136.065" y="334.333"/>
      <point x="162.434" y="300"/>
      <point x="215.767" y="300" type="curve" smooth="yes"/>
      <point x="363.767" y="300" type="line"/>
      <point x="352.941" y="282" type="line"/>
      <point x="246.941" y="282" type="line" smooth="yes"/>
      <point x="150.949" y="282"/>
      <point x="92.8646" y="225.185"/>
      <point x="76.4584" y="148" type="curve" smooth="yes"/>
      <point x="59.1704" y="66.6667"/>
      <point x="107" y="9"/>
      <point x="205.913" y="9" type="curve" smooth="yes"/>
      <point x="295" y="9"/>
      <point x="373.441" y="44.4166"/>
      <point x="372.14" y="43" type="curve"/>
      <point x="374.889" y="23" type="line"/>
      <point x="331.771" y="8.33333"/>
      <point x="263.329" y="-11"/>
      <point x="204.662" y="-11" type="curve" smooth="yes"/>
      <point x="68.5043" y="-11"/>
      <point x="41.9546" y="75.0604"/>
      <point x="58.0961" y="151" type="curve" smooth="yes"/>
      <point x="73.1167" y="221.667"/>
      <point x="119" y="270"/>
      <point x="183" y="289" type="curve"/>
      <point x="124" y="303"/>
      <point x="120.794" y="351.877"/>
      <point x="127.834" y="385" type="curve" smooth="yes"/>
      <point x="141.003" y="446.955"/>
      <point x="203.285" y="509"/>
      <point x="305.191" y="509" type="curve" smooth="yes"/>
      <point x="338.525" y="509"/>
      <point x="372.533" y="504.333"/>
      <point x="405.216" y="495" type="curve"/>
    </contour>
  </outline>
</glyph>
<glyph name="eta" format="1">
  <advance width="442"/>
  <unicode hex="03B7"/>
  <outline>
    <contour>
      <point x="459.545" y="346" type="line" smooth="yes"/>
      <point x="484.191" y="458.959"/>
      <point x="429.893" y="498.991"/>
      <point x="320.79" y="493" type="curve" smooth="yes"/>
      <point x="262.89" y="490.333"/>
      <point x="194.922" y="471.667"/>
      <point x="152.288" y="453" type="curve"/>
      <point x="56" y="0" type="line"/>
      <point x="38" y="0" type="line"/>
      <point x="144.066" y="499" type="line"/>
      <point x="162.066" y="499" type="line"/>
      <point x="156.114" y="471" type="line"/>
      <point x="203.864" y="490.213"/>
      <point x="259.532" y="505.39"/>
      <point x="310.979" y="508" type="curve" smooth="yes"/>
      <point x="398.483" y="513.236"/>
      <point x="512.644" y="501.722"/>
      <point x="479.332" y="345" type="curve" smooth="yes"/>
      <point x="361.151" y="-211" type="line"/>
      <point x="342" y="-205" type="line"/>
    </contour>
  </outline>
</glyph>
<glyph name="theta" format="1">
  <advance width="438"/>
  <unicode hex="03B8"/>
  <outline>
    <contour>
      <point x="361.277" y="707" type="curve" smooth="yes"/>
      <point x="487.944" y="707"/>
      <point x="535.627" y="628.667"/>
      <point x="508.703" y="502" type="curve" smooth="yes"/>
      <point x="441.961" y="188" type="line" smooth="yes"/>
      <point x="415.32" y="62.6667"/>
      <point x="338.391" y="-6"/>
      <point x="215.725" y="-6" type="curve" smooth="yes"/>
      <point x="90.3913" y="-6"/>
      <point x="44.7373" y="69.3333"/>
      <point x="69.9606" y="188" type="curve" smooth="yes"/>
      <point x="96.3177" y="312" type="line" smooth="yes"/>
      <point x="110.772" y="380"/>
      <point x="150.224" y="421.333"/>
      <point x="193.225" y="448" type="curve"/>
      <point x="158.561" y="492.021"/>
      <point x="163.494" y="538.653"/>
      <point x="167.394" y="557" type="curve" smooth="yes"/>
      <point x="184.235" y="636.231"/>
      <point x="256.516" y="707"/>
    </contour>
    <contour>
      <point x="488.703" y="502" type="line" smooth="yes"/>
      <point x="513.643" y="619.333"/>
      <point x="466.997" y="690"/>
      <point x="357.664" y="690" type="curve" smooth="yes"/>
      <point x="271.661" y="690"/>
      <point x="203.212" y="631.416"/>
      <point x="187.819" y="559" type="curve" smooth="yes"/>
      <point x="177" y="509"/>
      <point x="195" y="458"/>
      <point x="257" y="424" type="curve" smooth="yes"/>
      <point x="301" y="400"/>
      <point x="368" y="385"/>
      <point x="463.834" y="385" type="curve"/>
    </contour>
    <contour>
      <point x="216.976" y="14" type="curve" smooth="yes"/>
      <point x="345" y="14"/>
      <point x="399.728" y="83.4042"/>
      <point x="421.536" y="186" type="curve" smooth="yes"/>
      <point x="460.433" y="369" type="line"/>
      <point x="319.1" y="369"/>
      <point x="243.618" y="399.667"/>
      <point x="204.887" y="437" type="curve"/>
      <point x="162.169" y="411.667"/>
      <point x="127.575" y="369.667"/>
      <point x="115.105" y="311" type="curve" smooth="yes"/>
      <point x="88.323" y="185" type="line" smooth="yes"/>
      <point x="69.2634" y="95.3318"/>
      <point x="92" y="14"/>
    </contour>
  </outline>
</glyph>
<glyph name="kappa" format="1">
  <advance width="429"/>
  <unicode hex="03BA"/>
  <outline>
    <contour>
      <point x="316" y="113" type="line" smooth="yes"/>
      <point x="348" y="50"/>
      <point x="381" y="18"/>
      <point x="411" y="18" type="curve"/>
      <point x="407" y="-1" type="line"/>
      <point x="360" y="-1"/>
      <point x="323" y="61"/>
      <point x="303" y="99" type="curve" smooth="yes"/>
      <point x="211" y="278" type="line"/>
      <point x="95" y="179" type="line"/>
      <point x="56" y="0" type="line"/>
      <point x="38" y="0" type="line"/>
      <point x="147" y="512" type="line"/>
      <point x="164" y="508" type="line"/>
      <point x="100" y="206" type="line"/>
      <point x="435" y="501" type="line"/>
      <point x="462" y="501" type="line"/>
      <point x="226" y="292" type="line"/>
    </contour>
  </outline>
</glyph>
<glyph name="xi" format="1">
  <advance width="426"/>
  <unicode hex="03BE"/>
  <outline>
    <contour>
      <point x="515.326" y="679" type="line"/>
      <point x="378.326" y="679" type="line" smooth="yes"/>
      <point x="300.993" y="679"/>
      <point x="239.856" y="647.553"/>
      <point x="229.756" y="574" type="curve" smooth="yes"/>
      <point x="218.066" y="488.863"/>
      <point x="283.062" y="429.446"/>
      <point x="364.727" y="409.141" type="curve" smooth="yes"/>
      <point x="397.472" y="401" type="line"/>
      <point x="392.201" y="385.144" type="line"/>
      <point x="259.834" y="385" type="line" smooth="yes"/>
      <point x="156" y="385"/>
      <point x="117.3" y="326.029"/>
      <point x="101.352" y="251" type="curve" smooth="yes"/>
      <point x="82.4342" y="162" type="line" smooth="yes"/>
      <point x="66.9969" y="89.3731"/>
      <point x="65.0627" y="9"/>
      <point x="223.488" y="9" type="curve" smooth="yes"/>
      <point x="259.733" y="9"/>
      <point x="324.058" y="15.0794"/>
      <point x="383.826" y="23" type="curve"/>
      <point x="335.151" y="-211" type="line"/>
      <point x="316.426" y="-205" type="line"/>
      <point x="359.788" y="-1" type="line"/>
      <point x="309.957" y="-6.83091"/>
      <point x="240.418" y="-10"/>
      <point x="218.874" y="-10" type="curve" smooth="yes"/>
      <point x="71.7569" y="-10"/>
      <point x="38.6866" y="50.2762"/>
      <point x="63.7096" y="168" type="curve" smooth="yes"/>
      <point x="81.9894" y="254" type="line" smooth="yes"/>
      <point x="95.5958" y="318.013"/>
      <point x="130.507" y="405"/>
      <point x="264.085" y="405" type="curve" smooth="yes"/>
      <point x="310" y="405" type="line"/>
      <point x="227" y="441"/>
      <point x="200.182" y="516.974"/>
      <point x="207.544" y="573" type="curve" smooth="yes"/>
      <point x="220" y="659"/>
      <point x="285.979" y="700"/>
      <point x="378.79" y="700" type="curve" smooth="yes"/>
      <point x="529.79" y="700" type="line"/>
    </contour>
  </outline>
</glyph>
<glyph name="rho" format="1">
  <advance width="435"/>
  <unicode hex="03C1"/>
  <outline>
    <contour>
      <point x="440.135" y="170" type="line" smooth="yes"/>
      <point x="414.061" y="47.3333"/>
      <point x="336" y="-18"/>
      <point x="225.174" y="-18" type="curve" smooth="yes"/>
      <point x="162" y="-18"/>
      <point x="82.7316" y="18.4693"/>
      <point x="71.1543" y="76" type="curve"/>
      <point x="9.87522" y="-212" type="line"/>
      <point x="-8.84944" y="-206" type="line"/>
      <point x="100.893" y="310" type="line" smooth="yes"/>
      <point x="128.07" y="436.985"/>
      <point x="209.887" y="506"/>
      <point x="328.554" y="506" type="curve" smooth="yes"/>
      <point x="447.22" y="506"/>
      <point x="495.683" y="431.333"/>
      <point x="469.893" y="310" type="curve" smooth="yes"/>
    </contour>
    <contour>
      <point x="450.955" y="315" type="line" smooth="yes"/>
      <point x="475.328" y="429.667"/>
      <point x="420.302" y="486"/>
      <point x="324.302" y="486" type="curve" smooth="yes"/>
      <point x="213.12" y="486"/>
      <point x="144.616" y="421.611"/>
      <point x="121.955" y="315" type="curve" smooth="yes"/>
      <point x="85.183" y="142" type="line"/>
      <point x="62.4318" y="46.3333"/>
      <point x="156.32" y="-7.33333"/>
      <point x="243" y="-1" type="curve"/>
      <point x="330.8" y="4.33333"/>
      <point x="397.32" y="62.6667"/>
      <point x="418.859" y="164" type="curve" smooth="yes"/>
    </contour>
  </outline>
</glyph>
<glyph name="tau" format="1">
  <advance width="342"/>
  <unicode hex="03C4"/>
  <outline>
    <contour>
      <point x="203.057" y="132" type="line" smooth="yes"/>
      <point x="191.655" y="78.3564"/>
      <point x="179.622" y="24.1373"/>
      <point x="249.85" y="4" type="curve"/>
      <point x="239.237" y="-13" type="line"/>
      <point x="174.438" y="8.33333"/>
      <point x="164.919" y="46.6667"/>
      <point x="183.057" y="132" type="curve" smooth="yes"/>
      <point x="256.815" y="479" type="line"/>
      <point x="117.815" y="479" type="line"/>
      <point x="121.853" y="498" type="line"/>
      <point x="423.853" y="498" type="line"/>
      <point x="419.815" y="479" type="line"/>
      <point x="276.815" y="479" type="line"/>
    </contour>
  </outline>
</glyph>
<glyph name="phi" format="1">
  <advance width="582"/>
  <unicode hex="03C6"/>
  <outline>
    <contour>
      <point x="94.5302" y="313" type="line" smooth="yes"/>
      <point x="116.069" y="414.333"/>
      <point x="167.985" y="476.667"/>
      <point x="250.703" y="502" type="curve"/>
      <point x="256.09" y="485" type="line"/>
      <point x="192.972" y="470.333"/>
      <point x="137.061" y="419"/>
      <point x="114.955" y="315" type="curve" smooth="yes"/>
      <point x="85.8351" y="178" type="line" smooth="yes"/>
      <point x="62.4014" y="67.753"/>
      <point x="119.498" y="10"/>
      <point x="219.126" y="10" type="curve" smooth="yes"/>
      <point x="283.126" y="10" type="line"/>
      <point x="366.448" y="402" type="line" smooth="yes"/>
      <point x="378.634" y="459.333"/>
      <point x="416.554" y="506"/>
      <point x="480.554" y="506" type="curve" smooth="yes"/>
      <point x="599.048" y="506"/>
      <point x="642.038" y="423.598"/>
      <point x="617.042" y="306" type="curve" smooth="yes"/>
      <point x="591.961" y="188" type="line" smooth="yes"/>
      <point x="566.454" y="68"/>
      <point x="492.179" y="-7"/>
      <point x="365.512" y="-7" type="curve" smooth="yes"/>
      <point x="295.512" y="-7" type="line"/>
      <point x="252.151" y="-211" type="line"/>
      <point x="237.426" y="-205" type="line"/>
      <point x="279.512" y="-7" type="line"/>
      <point x="215.512" y="-7" type="line" smooth="yes"/>
      <point x="87.5121" y="-7"/>
      <point x="42.4539" y="68"/>
      <point x="67.9606" y="188" type="curve" smooth="yes"/>
    </contour>
    <contour>
      <point x="369.126" y="10" type="line" smooth="yes"/>
      <point x="482.459" y="10"/>
      <point x="552.083" y="75.6667"/>
      <point x="575.323" y="185" type="curve" smooth="yes"/>
      <point x="603.168" y="316" type="line" smooth="yes"/>
      <point x="617.218" y="382.102"/>
      <point x="603.146" y="488"/>
      <point x="483.728" y="488" type="curve" smooth="yes"/>
      <point x="429.061" y="488"/>
      <point x="394.422" y="458.333"/>
      <point x="381.385" y="397" type="curve" smooth="yes"/>
      <point x="299.126" y="10" type="line"/>
    </contour>
  </outline>
</glyph>
<glyph name="chi" format="1">
  <advance width="451"/>
  <unicode hex="03C7"/>
  <outline>
    <contour>
      <point x="319.256" y="-107" type="line" smooth="yes"/>
      <point x="336.886" y="-168.333"/>
      <point x="360.147" y="-195.333"/>
      <point x="404.914" y="-198" type="curve"/>
      <point x="393.151" y="-211" type="line"/>
      <point x="339.817" y="-211"/>
      <point x="321.186" y="-176.333"/>
      <point x="301.256" y="-107" type="curve" smooth="yes"/>
      <point x="234.845" y="131" type="line"/>
      <point x="-3.66109" y="-196" type="line"/>
      <point x="-19.1732" y="-189" type="line"/>
      <point x="228.458" y="148" type="line"/>
      <point x="126.853" y="498" type="line"/>
      <point x="146.853" y="498" type="line"/>
      <point x="241.284" y="166" type="line"/>
      <point x="485.853" y="498" type="line"/>
      <point x="505.853" y="498" type="line"/>
      <point x="248.458" y="148" type="line"/>
    </contour>
  </outline>
</glyph>
<glyph name="psi" format="1">
  <advance width="590"/>
  <unicode hex="03C8"/>
  <outline>
    <contour>
      <point x="632.128" y="504" type="line"/>
      <point x="651.71" y="470.667"/>
      <point x="648.683" y="431.333"/>
      <point x="639.047" y="386" type="curve" smooth="yes"/>
      <point x="596.961" y="188" type="line" smooth="yes"/>
      <point x="571.454" y="68"/>
      <point x="494.179" y="-7"/>
      <point x="367.512" y="-7" type="curve" smooth="yes"/>
      <point x="304.512" y="-7" type="line"/>
      <point x="261.151" y="-211" type="line"/>
      <point x="244.426" y="-205" type="line"/>
      <point x="286.512" y="-7" type="line"/>
      <point x="216.512" y="-7" type="line" smooth="yes"/>
      <point x="91.1788" y="-7"/>
      <point x="46.4538" y="68"/>
      <point x="71.9606" y="188" type="curve" smooth="yes"/>
      <point x="137.853" y="498" type="line"/>
      <point x="156.853" y="498" type="line"/>
      <point x="90.323" y="185" type="line" smooth="yes"/>
      <point x="67.0834" y="75.6667"/>
      <point x="105" y="10"/>
      <point x="220.126" y="10" type="curve" smooth="yes"/>
      <point x="290.126" y="10" type="line"/>
      <point x="393.853" y="498" type="line"/>
      <point x="411.853" y="498" type="line"/>
      <point x="308.126" y="10" type="line"/>
      <point x="371.126" y="10" type="line" smooth="yes"/>
      <point x="471.393" y="10"/>
      <point x="552.428" y="67.8785"/>
      <point x="575.835" y="178" type="curve" smooth="yes"/>
      <point x="620.472" y="388" type="line" smooth="yes"/>
      <point x="633.225" y="448"/>
      <point x="631" y="471.333"/>
      <point x="614" y="498" type="curve"/>
    </contour>
  </outline>
</glyph>
<glyph name="omega" format="1">
  <advance width="593"/>
  <unicode hex="03C9"/>
  <outline>
    <contour>
      <point x="560.641" y="497" type="line"/>
      <point x="625.781" y="471"/>
      <point x="648.219" y="410.333"/>
      <point x="627.955" y="315" type="curve" smooth="yes"/>
      <point x="600.536" y="186" type="line" smooth="yes"/>
      <point x="572.478" y="54"/>
      <point x="504.903" y="-13"/>
      <point x="398.237" y="-13" type="curve" smooth="yes"/>
      <point x="358.085" y="-13"/>
      <point x="304.297" y="10.6418"/>
      <point x="311.517" y="73" type="curve"/>
      <point x="292.273" y="10.7883"/>
      <point x="226.62" y="-13"/>
      <point x="186.237" y="-13" type="curve" smooth="yes"/>
      <point x="80.9034" y="-13"/>
      <point x="41.4781" y="54"/>
      <point x="69.5355" y="186" type="curve" smooth="yes"/>
      <point x="96.9553" y="315" type="line" smooth="yes"/>
      <point x="117.077" y="409.667"/>
      <point x="165.256" y="471.667"/>
      <point x="242.641" y="497" type="curve"/>
      <point x="244.452" y="482" type="line"/>
      <point x="183.634" y="459.333"/>
      <point x="133.928" y="413.667"/>
      <point x="112.955" y="315" type="curve" smooth="yes"/>
      <point x="84.0477" y="179" type="line" smooth="yes"/>
      <point x="59.6745" y="64.3333"/>
      <point x="91" y="3"/>
      <point x="183" y="3" type="curve" smooth="yes"/>
      <point x="248.333" y="3"/>
      <point x="292.048" y="41"/>
      <point x="309.169" y="109" type="curve"/>
      <point x="348.917" y="296" type="line"/>
      <point x="368.917" y="296" type="line"/>
      <point x="329.169" y="109" type="line"/>
      <point x="317.382" y="41"/>
      <point x="340.73" y="3"/>
      <point x="406.063" y="3" type="curve" smooth="yes"/>
      <point x="498.063" y="3"/>
      <point x="558.062" y="67.4548"/>
      <point x="583" y="182" type="curve" smooth="yes"/>
      <point x="611.955" y="315" type="line" smooth="yes"/>
      <point x="633.56" y="413.88"/>
      <point x="602.634" y="459.333"/>
      <point x="551.452" y="482" type="curve"/>
    </contour>
  </outline>
</glyph>
<glyph name="quoteleft" format="1">
  <advance width="103"/>
  <unicode hex="2018"/>
  <outline>
    <contour>
      <point x="215.35" y="665" type="line"/>
      <point x="191.666" y="647.667"/>
      <point x="182.444" y="624.667"/>
      <point x="176.66" y="610" type="curve"/>
      <point x="183.043" y="608.667"/>
      <point x="188.172" y="603"/>
      <point x="186.471" y="595" type="curve" smooth="yes"/>
      <point x="184.487" y="585.667"/>
      <point x="175.737" y="579"/>
      <point x="165.07" y="579" type="curve" smooth="yes"/>
      <point x="155.737" y="579"/>
      <point x="151.487" y="585.667"/>
      <point x="153.471" y="595" type="curve" smooth="yes"/>
      <point x="163.228" y="648.222"/>
      <point x="209.417" y="672.111"/>
      <point x="207.838" y="672" type="curve"/>
    </contour>
  </outline>
</glyph>
<glyph name="quoteright" format="1">
  <advance width="102"/>
  <unicode hex="2019"/>
  <outline>
    <contour>
      <point x="151.621" y="591" type="line"/>
      <point x="174.255" y="609.667"/>
      <point x="183.861" y="631.333"/>
      <point x="188.312" y="646" type="curve"/>
      <point x="182.212" y="648.667"/>
      <point x="178.799" y="653"/>
      <point x="180.5" y="661" type="curve" smooth="yes"/>
      <point x="182.767" y="671.667"/>
      <point x="192.326" y="679"/>
      <point x="200.326" y="679" type="curve" smooth="yes"/>
      <point x="210.993" y="679"/>
      <point x="215.767" y="671.667"/>
      <point x="213.5" y="661" type="curve" smooth="yes"/>
      <point x="202.402" y="607.222"/>
      <point x="158.107" y="585.444"/>
      <point x="158.346" y="585" type="curve"/>
    </contour>
  </outline>
</glyph>
<glyph name="bullet" format="1">
  <advance width="269"/>
  <unicode hex="2022"/>
  <outline>
    <contour>
      <point x="292.723" y="408" type="curve" smooth="yes"/>
      <point x="308.189" y="386.667"/>
      <point x="313.016" y="362.333"/>
      <point x="307.206" y="335" type="curve" smooth="yes"/>
      <point x="301.538" y="308.333"/>
      <point x="284.82" y="283"/>
      <point x="261.902" y="263" type="curve" smooth="yes"/>
      <point x="236.843" y="242.333"/>
      <point x="210.313" y="232"/>
      <point x="182.313" y="232" type="curve" smooth="yes"/>
      <point x="153.646" y="232"/>
      <point x="131.51" y="242.333"/>
      <point x="115.902" y="263" type="curve" smooth="yes"/>
      <point x="100.154" y="283"/>
      <point x="95.2549" y="307"/>
      <point x="101.206" y="335" type="curve" smooth="yes"/>
      <point x="107.3" y="363.667"/>
      <point x="122.472" y="388"/>
      <point x="146.723" y="408" type="curve" smooth="yes"/>
      <point x="171.116" y="428.667"/>
      <point x="197.646" y="439"/>
      <point x="226.312" y="439" type="curve" smooth="yes"/>
      <point x="254.312" y="439"/>
      <point x="276.449" y="428.667"/>
    </contour>
  </outline>
</glyph>
<glyph name="ellipsis" format="1">
  <advance width="454"/>
  <unicode hex="2026"/>
  <outline>
    <contour>
      <point x="57.3767" y="30" type="curve" smooth="yes"/>
      <point x="66.71" y="30"/>
      <point x="72.818" y="22.6667"/>
      <point x="70.5507" y="12" type="curve" smooth="yes"/>
      <point x="68.5668" y="2.66667"/>
      <point x="59.4831" y="-4"/>
      <point x="50.1497" y="-4" type="curve" smooth="yes"/>
      <point x="40.8164" y="-4"/>
      <point x="35.5668" y="2.66667"/>
      <point x="37.5507" y="12" type="curve" smooth="yes"/>
      <point x="39.818" y="22.6667"/>
      <point x="48.0434" y="30"/>
    </contour>
    <contour>
      <point x="231.377" y="30" type="curve" smooth="yes"/>
      <point x="242.043" y="30"/>
      <point x="247.818" y="22.6667"/>
      <point x="245.551" y="12" type="curve" smooth="yes"/>
      <point x="243.567" y="2.66667"/>
      <point x="234.816" y="-4"/>
      <point x="224.15" y="-4" type="curve" smooth="yes"/>
      <point x="214.816" y="-4"/>
      <point x="209.567" y="2.66667"/>
      <point x="211.551" y="12" type="curve" smooth="yes"/>
      <point x="213.818" y="22.6667"/>
      <point x="222.043" y="30"/>
    </contour>
    <contour>
      <point x="410.377" y="30" type="curve" smooth="yes"/>
      <point x="419.71" y="30"/>
      <point x="425.818" y="22.6667"/>
      <point x="423.551" y="12" type="curve" smooth="yes"/>
      <point x="421.567" y="2.66667"/>
      <point x="412.483" y="-4"/>
      <point x="403.15" y="-4" type="curve" smooth="yes"/>
      <point x="393.816" y="-4"/>
      <point x="388.567" y="2.66667"/>
      <point x="390.551" y="12" type="curve" smooth="yes"/>
      <point x="392.818" y="22.6667"/>
      <point x="401.043" y="30"/>
    </contour>
  </outline>
</glyph>
<glyph name="perthousand" format="1">
  <advance width="1053"/>
  <unicode hex="2030"/>
  <outline>
    <contour>
      <point x="66" y="0" type="line"/>
      <point x="751.365" y="698" type="line"/>
      <point x="777.365" y="698" type="line"/>
      <point x="92" y="0" type="line"/>
    </contour>
    <contour>
      <point x="324.34" y="712" type="curve" smooth="yes"/>
      <point x="403.067" y="712"/>
      <point x="455.652" y="647.604"/>
      <point x="438.307" y="566" type="curve" smooth="yes"/>
      <point x="421.309" y="486.03"/>
      <point x="341.056" y="421"/>
      <point x="262.486" y="421" type="curve" smooth="yes"/>
      <point x="181.731" y="421"/>
      <point x="130.277" y="485.879"/>
      <point x="147.307" y="566" type="curve" smooth="yes"/>
      <point x="164.62" y="647.453"/>
      <point x="243.743" y="712"/>
    </contour>
    <contour>
      <point x="320.089" y="692" type="curve" smooth="yes"/>
      <point x="250.558" y="692"/>
      <point x="182.087" y="635.534"/>
      <point x="167.307" y="566" type="curve" smooth="yes"/>
      <point x="152.837" y="497.924"/>
      <point x="197.062" y="441"/>
      <point x="266.737" y="441" type="curve" smooth="yes"/>
      <point x="334.01" y="441"/>
      <point x="402.86" y="498.031"/>
      <point x="417.307" y="566" type="curve" smooth="yes"/>
      <point x="432.11" y="635.641"/>
      <point x="387.506" y="692"/>
    </contour>
    <contour>
      <point x="590.666" y="276" type="curve" smooth="yes"/>
      <point x="671.669" y="276"/>
      <point x="721.856" y="211.033"/>
      <point x="704.845" y="131" type="curve" smooth="yes"/>
      <point x="687.847" y="51.0296"/>
      <point x="609.844" y="-14"/>
      <point x="529.024" y="-14" type="curve" smooth="yes"/>
      <point x="448.931" y="-14"/>
      <point x="397.821" y="50.9104"/>
      <point x="414.845" y="131" type="curve" smooth="yes"/>
      <point x="431.831" y="210.914"/>
      <point x="510.756" y="276"/>
    </contour>
    <contour>
      <point x="586.414" y="256" type="curve" smooth="yes"/>
      <point x="518.421" y="256"/>
      <point x="449.479" y="199.847"/>
      <point x="434.845" y="131" type="curve" smooth="yes"/>
      <point x="420.225" y="62.2199"/>
      <point x="465.357" y="7"/>
      <point x="533.488" y="7" type="curve" smooth="yes"/>
      <point x="602.967" y="7"/>
      <point x="671.255" y="62.3579"/>
      <point x="685.845" y="131" type="curve" smooth="yes"/>
      <point x="700.508" y="199.986"/>
      <point x="656.031" y="256"/>
    </contour>
    <contour>
      <point x="936.666" y="276" type="curve" smooth="yes"/>
      <point x="1016.76" y="276"/>
      <point x="1067.87" y="211.09"/>
      <point x="1050.84" y="131" type="curve" smooth="yes"/>
      <point x="1033.86" y="51.0861"/>
      <point x="954.934" y="-14"/>
      <point x="875.024" y="-14" type="curve" smooth="yes"/>
      <point x="794.931" y="-14"/>
      <point x="743.821" y="50.9104"/>
      <point x="760.845" y="131" type="curve" smooth="yes"/>
      <point x="777.831" y="210.914"/>
      <point x="856.756" y="276"/>
    </contour>
    <contour>
      <point x="932.414" y="256" type="curve" smooth="yes"/>
      <point x="862.85" y="256"/>
      <point x="794.484" y="199.873"/>
      <point x="779.845" y="131" type="curve" smooth="yes"/>
      <point x="765.231" y="62.245"/>
      <point x="809.786" y="7"/>
      <point x="879.488" y="7" type="curve" smooth="yes"/>
      <point x="948.985" y="7"/>
      <point x="1015.25" y="62.3517"/>
      <point x="1029.84" y="131" type="curve" smooth="yes"/>
      <point x="1044.51" y="199.979"/>
      <point x="1002.05" y="256"/>
    </contour>
  </outline>
</glyph>
<glyph name="guilsinglleft" format="1">
  <advance width="261"/>
  <unicode hex="2039"/>
  <outline>
    <contour>
      <point x="82.54" y="266" type="line"/>
      <point x="308.288" y="453" type="line"/>
      <point x="321.525" y="440" type="line"/>
      <point x="110.54" y="266" type="line"/>
      <point x="247.405" y="96" type="line"/>
      <point x="228.792" y="79" type="line"/>
    </contour>
  </outline>
</glyph>
<glyph name="ff" format="1">
  <advance width="491"/>
  <unicode hex="FB00"/>
  <outline>
    <contour>
      <point x="607.775" y="667" type="line"/>
      <point x="570.893" y="681.667"/>
      <point x="531.339" y="685.333"/>
      <point x="488.138" y="664" type="curve"/>
      <point x="448.936" y="642.667"/>
      <point x="421.589" y="609.667"/>
      <point x="410.819" y="559" type="curve" smooth="yes"/>
      <point x="397.853" y="498" type="line"/>
      <point x="546.853" y="498" type="line"/>
      <point x="535.452" y="482" type="line"/>
      <point x="394.452" y="482" type="line"/>
      <point x="292" y="0" type="line"/>
      <point x="271" y="0" type="line"/>
      <point x="390.032" y="560" type="line" smooth="yes"/>
      <point x="397.4" y="594.667"/>
      <point x="413.515" y="625"/>
      <point x="435.949" y="649" type="curve"/>
      <point x="412" y="674.333"/>
      <point x="372.217" y="686.333"/>
      <point x="334.601" y="685" type="curve"/>
      <point x="265.052" y="685"/>
      <point x="195.23" y="640.913"/>
      <point x="177.393" y="557" type="curve" smooth="yes"/>
      <point x="164.853" y="498" type="line"/>
      <point x="314.853" y="498" type="line"/>
      <point x="303.452" y="482" type="line"/>
      <point x="161.452" y="482" type="line"/>
      <point x="59" y="0" type="line"/>
      <point x="39" y="0" type="line"/>
      <point x="158.032" y="560" type="line" smooth="yes"/>
      <point x="178.365" y="655.663"/>
      <point x="263.569" y="702.011"/>
      <point x="329.64" y="704" type="curve" smooth="yes"/>
      <point x="379.257" y="705.333"/>
      <point x="415.748" y="696.667"/>
      <point x="453.712" y="662" type="curve"/>
      <point x="485.48" y="686"/>
      <point x="518.698" y="698"/>
      <point x="553.364" y="698" type="curve" smooth="yes"/>
      <point x="576.031" y="698"/>
      <point x="604.352" y="691.667"/>
      <point x="616.751" y="681" type="curve"/>
    </contour>
  </outline>
</glyph>
<glyph name="fi" format="1">
  <advance width="348"/>
  <unicode hex="FB01"/>
  <outline>
    <contour>
      <point x="158.032" y="560" type="line" smooth="yes"/>
      <point x="175.571" y="642.516"/>
      <point x="249.843" y="707"/>
      <point x="335.277" y="707" type="curve" smooth="yes"/>
      <point x="379.277" y="707"/>
      <point x="417.614" y="691.333"/>
      <point x="443.862" y="658" type="curve"/>
      <point x="429.099" y="645" type="line"/>
      <point x="403.617" y="675.667"/>
      <point x="367.664" y="690"/>
      <point x="331.664" y="690" type="curve" smooth="yes"/>
      <point x="263.943" y="690"/>
      <point x="190.119" y="635.589"/>
      <point x="176.756" y="554" type="curve"/>
      <point x="164.853" y="498" type="line"/>
      <point x="314.853" y="498" type="line"/>
      <point x="304.452" y="482" type="line"/>
      <point x="161.452" y="482" type="line"/>
      <point x="59" y="0" type="line"/>
      <point x="39" y="0" type="line"/>
    </contour>
    <contour>
      <point x="308" y="0" type="line"/>
      <point x="288" y="0" type="line"/>
      <point x="393.853" y="498" type="line"/>
      <point x="413.853" y="498" type="line"/>
    </contour>
  </outline>
</glyph>
<glyph name="fl" format="1">
  <advance width="347"/>
  <unicode hex="FB02"/>
  <outline>
    <contour>
      <point x="423.312" y="646" type="line"/>
      <point x="399.646" y="672.667"/>
      <point x="371.197" y="684.667"/>
      <point x="336.814" y="686" type="curve" smooth="yes"/>
      <point x="267.327" y="687.997"/>
      <point x="190.794" y="638.812"/>
      <point x="178.669" y="563" type="curve"/>
      <point x="164.853" y="498" type="line"/>
      <point x="314.853" y="498" type="line"/>
      <point x="304.452" y="482" type="line"/>
      <point x="161.452" y="482" type="line"/>
      <point x="59" y="0" type="line"/>
      <point x="39" y="0" type="line"/>
      <point x="158.032" y="560" type="line" smooth="yes"/>
      <point x="181.487" y="670.348"/>
      <point x="280.148" y="704"/>
      <point x="338.64" y="704" type="curve" smooth="yes"/>
      <point x="381.306" y="704"/>
      <point x="413.622" y="686.667"/>
      <point x="444.437" y="656" type="curve"/>
      <point x="305" y="0" type="line"/>
      <point x="286" y="0" type="line"/>
    </contour>
  </outline>
</glyph>
<glyph name="ffl" format="1">
  <advance width="576"/>
  <unicode hex="FB04"/>
  <outline>
    <contour>
      <point x="652.312" y="646" type="line"/>
      <point x="618.147" y="686"/>
      <point x="566.394" y="695"/>
      <point x="516.326" y="679" type="curve" smooth="yes"/>
      <point x="464.642" y="661.667"/>
      <point x="420" y="619"/>
      <point x="407.669" y="563" type="curve" smooth="yes"/>
      <point x="393.853" y="498" type="line"/>
      <point x="544.853" y="498" type="line"/>
      <point x="534.452" y="482" type="line"/>
      <point x="390.452" y="482" type="line"/>
      <point x="288" y="0" type="line"/>
      <point x="268" y="0" type="line"/>
      <point x="386.819" y="559" type="line" smooth="yes"/>
      <point x="394.241" y="593.918"/>
      <point x="411.564" y="624.705"/>
      <point x="434.949" y="649" type="curve"/>
      <point x="408.334" y="674.333"/>
      <point x="373.41" y="685.667"/>
      <point x="335.026" y="687" type="curve" smooth="yes"/>
      <point x="266.834" y="689.018"/>
      <point x="194.775" y="638.773"/>
      <point x="177.394" y="557" type="curve" smooth="yes"/>
      <point x="164.853" y="498" type="line"/>
      <point x="314.853" y="498" type="line"/>
      <point x="303.452" y="482" type="line"/>
      <point x="161.452" y="482" type="line"/>
      <point x="59" y="0" type="line"/>
      <point x="39" y="0" type="line"/>
      <point x="157.819" y="559" type="line" smooth="yes"/>
      <point x="178.806" y="657.735"/>
      <point x="268.594" y="704"/>
      <point x="329.64" y="704" type="curve" smooth="yes"/>
      <point x="369.64" y="704"/>
      <point x="407.748" y="696.667"/>
      <point x="453.712" y="662" type="curve"/>
      <point x="481.197" y="684.667"/>
      <point x="521.427" y="703"/>
      <point x="565.427" y="703" type="curve" smooth="yes"/>
      <point x="609.427" y="703"/>
      <point x="643.814" y="686"/>
      <point x="673.012" y="654" type="curve"/>
      <point x="534" y="0" type="line"/>
      <point x="515" y="0" type="line"/>
    </contour>
  </outline>
</glyph>
<glyph name="commaturnedabovecomb" format="1">
  <advance width="266"/>
  <outline>
    <contour>
      <point x="301.355" y="679" type="line"/>
      <point x="278.72" y="660.333"/>
      <point x="269.447" y="638.667"/>
      <point x="263.662" y="624" type="curve"/>
      <point x="269.762" y="621.333"/>
      <point x="272.962" y="616"/>
      <point x="271.261" y="608" type="curve" smooth="yes"/>
      <point x="269.347" y="599"/>
      <point x="261.193" y="592"/>
      <point x="251.859" y="592" type="curve" smooth="yes"/>
      <point x="242.526" y="592"/>
      <point x="236.277" y="598.667"/>
      <point x="238.261" y="608" type="curve"/>
      <point x="249.243" y="661.222"/>
      <point x="293.988" y="685.111"/>
      <point x="293.631" y="685" type="curve"/>
    </contour>
  </outline>
</glyph>
<glyph name="dieresistonoscomb" format="1">
  <advance width="266"/>
  <outline>
    <contour>
      <point x="217.664" y="690" type="curve" smooth="yes"/>
      <point x="215.68" y="680.667"/>
      <point x="206.384" y="673"/>
      <point x="197.051" y="673" type="curve" smooth="yes"/>
      <point x="187.717" y="673"/>
      <point x="180.68" y="680.667"/>
      <point x="182.664" y="690" type="curve" smooth="yes"/>
      <point x="184.931" y="700.667"/>
      <point x="194.732" y="706"/>
      <point x="204.065" y="706" type="curve" smooth="yes"/>
      <point x="213.398" y="706"/>
      <point x="219.931" y="700.667"/>
    </contour>
    <contour>
      <point x="375.664" y="690" type="curve" smooth="yes"/>
      <point x="373.68" y="680.667"/>
      <point x="364.717" y="673"/>
      <point x="354.051" y="673" type="curve" smooth="yes"/>
      <point x="344.717" y="673"/>
      <point x="339.68" y="680.667"/>
      <point x="341.664" y="690" type="curve" smooth="yes"/>
      <point x="343.931" y="700.667"/>
      <point x="351.732" y="706"/>
      <point x="361.065" y="706" type="curve" smooth="yes"/>
      <point x="371.732" y="706"/>
      <point x="377.931" y="700.667"/>
    </contour>
    <contour>
      <point x="367.147" y="824" type="curve" smooth="yes"/>
      <point x="290.891" y="724" type="line"/>
      <point x="268.891" y="724" type="line"/>
      <point x="343.91" y="837" type="line" smooth="yes"/>
      <point x="349.894" y="846.333"/>
      <point x="357.85" y="848"/>
      <point x="365" y="844" type="curve" smooth="yes"/>
      <point x="372.15" y="840"/>
      <point x="372.847" y="832"/>
    </contour>
  </outline>
</glyph>
<glyph name="ft" format="1">
  <advance width="485"/>
  <outline>
    <contour>
      <point x="333.057" y="132" type="line" smooth="yes"/>
      <point x="317.47" y="58.6667"/>
      <point x="337.668" y="26.6667"/>
      <point x="400.85" y="4" type="curve"/>
      <point x="389.237" y="-13" type="line"/>
      <point x="319.105" y="8.33333"/>
      <point x="296.336" y="53.3333"/>
      <point x="313.057" y="132" type="curve" smooth="yes"/>
      <point x="422.312" y="646" type="line"/>
      <point x="401.313" y="672.667"/>
      <point x="369.391" y="684.897"/>
      <point x="335" y="686" type="curve" smooth="yes"/>
      <point x="265.723" y="688.222"/>
      <point x="194.751" y="638.659"/>
      <point x="178.669" y="563" type="curve" smooth="yes"/>
      <point x="164.853" y="498" type="line"/>
      <point x="313.853" y="498" type="line"/>
      <point x="303.452" y="482" type="line"/>
      <point x="161.452" y="482" type="line"/>
      <point x="59" y="0" type="line"/>
      <point x="53.6667" y="0"/>
      <point x="44.3333" y="0"/>
      <point x="39" y="0" type="curve"/>
      <point x="158.032" y="560" type="line" smooth="yes"/>
      <point x="181.487" y="670.348"/>
      <point x="280.148" y="704"/>
      <point x="338.64" y="704" type="curve" smooth="yes"/>
      <point x="381.306" y="704"/>
      <point x="413.622" y="686.667"/>
      <point x="444.437" y="656" type="curve"/>
      <point x="410.853" y="498" type="line"/>
      <point x="567.853" y="498" type="line"/>
      <point x="556.452" y="482" type="line"/>
      <point x="407.452" y="482" type="line"/>
    </contour>
  </outline>
</glyph>
<glyph name="gamma_kappa" format="1">
  <advance width="898"/>
  <outline>
    <contour>
      <point x="614" y="497" type="line"/>
      <point x="544" y="505"/>
      <point x="523" y="467"/>
      <point x="502" y="428" type="curve" smooth="yes"/>
      <point x="233" y="-92" type="line" smooth="yes"/>
      <point x="211" y="-135"/>
      <point x="165" y="-199"/>
      <point x="71" y="-199" type="curve"/>
      <point x="70" y="-180" type="line"/>
      <point x="166" y="-180"/>
      <point x="199" y="-118"/>
      <point x="219" y="-79" type="curve" smooth="yes"/>
      <point x="256" y="-6" type="line"/>
      <point x="188" y="-2"/>
      <point x="161" y="48"/>
      <point x="155" y="129" type="curve" smooth="yes"/>
      <point x="126" y="500" type="line"/>
      <point x="145" y="500" type="line"/>
      <point x="173" y="140" type="line" smooth="yes"/>
      <point x="180" y="56"/>
      <point x="204" y="15"/>
      <point x="267" y="15" type="curve"/>
      <point x="484" y="430" type="line" smooth="yes"/>
      <point x="518" y="495"/>
      <point x="543" y="517"/>
      <point x="612" y="512" type="curve"/>
      <point x="614" y="509" type="line"/>
    </contour>
    <contour>
      <point x="781" y="113" type="line" smooth="yes"/>
      <point x="813" y="50"/>
      <point x="846" y="18"/>
      <point x="876" y="18" type="curve"/>
      <point x="872" y="-1" type="line"/>
      <point x="825" y="-1"/>
      <point x="788" y="61"/>
      <point x="768" y="99" type="curve" smooth="yes"/>
      <point x="676" y="278" type="line"/>
      <point x="560" y="179" type="line"/>
      <point x="521" y="0" type="line"/>
      <point x="503" y="0" type="line"/>
      <point x="612" y="512" type="line"/>
      <point x="629" y="508" type="line"/>
      <point x="565" y="206" type="line"/>
      <point x="900" y="501" type="line"/>
      <point x="927" y="501" type="line"/>
      <point x="691" y="292" type="line"/>
    </contour>
  </outline>
</glyph>
<glyph name="sigma_tau" format="1">
  <advance width="741"/>
  <outline>
    <contour>
      <point x="822" y="480" type="line"/>
      <point x="759" y="472"/>
      <point x="692" y="469"/>
      <point x="635" y="469" type="curve" smooth="yes"/>
      <point x="555" y="469"/>
      <point x="486" y="475"/>
      <point x="428" y="485" type="curve"/>
      <point x="472" y="451"/>
      <point x="483" y="402"/>
      <point x="465" y="320" type="curve" smooth="yes"/>
      <point x="435" y="185" type="line" smooth="yes"/>
      <point x="409" y="68"/>
      <point x="334" y="-10"/>
      <point x="212" y="-10" type="curve" smooth="yes"/>
      <point x="84" y="-10"/>
      <point x="43" y="77"/>
      <point x="66" y="185" type="curve" smooth="yes"/>
      <point x="97" y="328" type="line" smooth="yes"/>
      <point x="126" y="462"/>
      <point x="229" y="512"/>
      <point x="318" y="512" type="curve" smooth="yes"/>
      <point x="362" y="512"/>
      <point x="405" y="508"/>
      <point x="443" y="502" type="curve" smooth="yes"/>
      <point x="499" y="494"/>
      <point x="562" y="490"/>
      <point x="627" y="490" type="curve" smooth="yes"/>
      <point x="691" y="490"/>
      <point x="757" y="492"/>
      <point x="826" y="500" type="curve"/>
    </contour>
    <contour>
      <point x="445" y="320" type="line" smooth="yes"/>
      <point x="468" y="426"/>
      <point x="433" y="468"/>
      <point x="389" y="488" type="curve"/>
      <point x="368" y="493"/>
      <point x="340" y="496"/>
      <point x="314" y="495" type="curve" smooth="yes"/>
      <point x="224" y="492"/>
      <point x="141" y="441"/>
      <point x="116" y="324" type="curve" smooth="yes"/>
      <point x="86" y="185" type="line" smooth="yes"/>
      <point x="65" y="86"/>
      <point x="102" y="8"/>
      <point x="215" y="8" type="curve" smooth="yes"/>
      <point x="327" y="8"/>
      <point x="395" y="84"/>
      <point x="416" y="185" type="curve" smooth="yes"/>
    </contour>
    <contour>
      <point x="605" y="133" type="line" smooth="yes"/>
      <point x="593" y="79"/>
      <point x="581" y="24"/>
      <point x="652" y="4" type="curve"/>
      <point x="641" y="-13" type="line"/>
      <point x="564" y="14"/>
      <point x="572" y="68"/>
      <point x="585" y="133" type="curve" smooth="yes"/>
      <point x="659" y="481" type="line"/>
      <point x="679" y="481" type="line"/>
    </contour>
  </outline>
</glyph>
<glyph name="uni0312" format="1">
  <advance width="266"/>
  <outline>
    <contour>
      <point x="301" y="679" type="line"/>
      <point x="278" y="660"/>
      <point x="268" y="639"/>
      <point x="263" y="624" type="curve"/>
      <point x="269" y="621"/>
      <point x="272" y="616"/>
      <point x="271" y="608" type="curve"/>
      <point x="268" y="597"/>
      <point x="261" y="592"/>
      <point x="251" y="592" type="curve" smooth="yes"/>
      <point x="242" y="592"/>
      <point x="235" y="599"/>
      <point x="238" y="608" type="curve"/>
      <point x="243" y="635"/>
      <point x="256" y="653"/>
      <point x="269" y="666" type="curve" smooth="yes"/>
      <point x="276" y="673"/>
      <point x="284" y="680"/>
      <point x="293" y="685" type="curve"/>
    </contour>
  </outline>
</glyph>
<glyph name="uni0327" format="1">
  <advance width="266"/>
  <outline>
    <contour>
      <point x="150" y="0" type="line"/>
      <point x="113" y="-46" type="line"/>
      <point x="147" y="-46" type="line" smooth="yes"/>
      <point x="199" y="-46"/>
      <point x="230" y="-85"/>
      <point x="219" y="-136" type="curve" smooth="yes"/>
      <point x="212" y="-167"/>
      <point x="196" y="-188"/>
      <point x="176" y="-203" type="curve" smooth="yes"/>
      <point x="155" y="-218"/>
      <point x="130" y="-225"/>
      <point x="109" y="-226" type="curve"/>
      <point x="64" y="-226"/>
      <point x="44" y="-221"/>
      <point x="11" y="-213" type="curve"/>
      <point x="13" y="-209"/>
      <point x="15" y="-206"/>
      <point x="16" y="-205" type="curve" smooth="yes"/>
      <point x="17" y="-204"/>
      <point x="19" y="-201"/>
      <point x="21" y="-196" type="curve"/>
      <point x="21" y="-196"/>
      <point x="23" y="-197"/>
      <point x="28" y="-198" type="curve"/>
      <point x="37" y="-201"/>
      <point x="55" y="-204"/>
      <point x="77" y="-206" type="curve" smooth="yes"/>
      <point x="88" y="-207"/>
      <point x="100" y="-208"/>
      <point x="113" y="-207" type="curve" smooth="yes"/>
      <point x="122" y="-206"/>
      <point x="141" y="-204"/>
      <point x="158" y="-194" type="curve" smooth="yes"/>
      <point x="175" y="-184"/>
      <point x="193" y="-168"/>
      <point x="200" y="-136" type="curve" smooth="yes"/>
      <point x="208" y="-96"/>
      <point x="185" y="-67"/>
      <point x="142" y="-67" type="curve" smooth="yes"/>
      <point x="85" y="-67" type="line"/>
      <point x="90" y="-46" type="line"/>
      <point x="129" y="0" type="line"/>
    </contour>
  </outline>
</glyph>
